<svg width="134" height="30" viewBox="0 0 134 30" fill="none" xmlns="http://www.w3.org/2000/svg">
<g clip-path="url(#clip0_959_31552)">
<path d="M11.8923 6.16415C9.53981 6.17177 7.24234 6.87808 5.29021 8.19383C3.33808 9.50958 1.81889 11.3757 0.924593 13.5565C0.030294 15.7372 -0.198978 18.1347 0.265745 20.446C0.730468 22.7573 1.86833 24.8787 3.53556 26.5421C5.20279 28.2056 7.32457 29.3364 9.6328 29.7917C11.941 30.247 14.3321 30.0064 16.504 29.1002C18.6758 28.1941 20.5309 26.6631 21.8349 24.7007C23.1389 22.7383 23.8333 20.4325 23.8302 18.0748C23.8292 16.5064 23.5194 14.9536 22.9184 13.5055C22.3175 12.0574 21.4372 10.7424 20.3282 9.63585C19.2191 8.52934 17.9031 7.65309 16.4555 7.05735C15.0079 6.4616 13.4572 6.15807 11.8923 6.16415ZM15.3745 23.4061C14.4831 23.4087 13.6054 23.1861 12.8224 22.7589L12.6456 22.6588C12.7083 22.6063 12.7673 22.5496 12.8224 22.4893C13.1926 22.1286 13.5155 21.7221 13.7833 21.2797C14.3283 21.5541 14.9342 21.6843 15.5435 21.6577C16.1528 21.6311 16.7452 21.4487 17.2643 21.1279C17.7835 20.807 18.212 20.3584 18.5093 19.8247C18.8065 19.291 18.9626 18.6899 18.9626 18.0786C18.9626 17.4674 18.8065 16.8663 18.5093 16.3326C18.212 15.7989 17.7835 15.3502 17.2643 15.0294C16.7452 14.7085 16.1528 14.5262 15.5435 14.4996C14.9342 14.473 14.3283 14.6031 13.7833 14.8776C13.5248 15.0041 13.2844 15.1647 13.0684 15.3552L12.8224 15.5786V21.1796C12.3901 21.7746 11.844 22.2774 11.2158 22.6588L11.039 22.7589C10.2591 23.1868 9.38373 23.4094 8.49465 23.4061C7.08385 23.4061 5.73084 22.8444 4.73325 21.8446C3.73567 20.8448 3.17523 19.4887 3.17523 18.0748C3.17523 16.6608 3.73567 15.3048 4.73325 14.305C5.73084 13.3052 7.08385 12.7435 8.49465 12.7435C9.3844 12.7425 10.2599 12.9678 11.039 13.3984C11.1005 13.4271 11.1596 13.4606 11.2158 13.4985L11.039 13.668C10.6735 14.0309 10.3535 14.4371 10.0859 14.8776C9.5409 14.6031 8.93494 14.473 8.32563 14.4996C7.71632 14.5262 7.12393 14.7085 6.60482 15.0294C6.08571 15.3502 5.65714 15.7989 5.35988 16.3326C5.06263 16.8663 4.90658 17.4674 4.90658 18.0786C4.90658 18.6899 5.06263 19.291 5.35988 19.8247C5.65714 20.3584 6.08571 20.807 6.60482 21.1279C7.12393 21.4487 7.71632 21.6311 8.32563 21.6577C8.93494 21.6843 9.5409 21.5541 10.0859 21.2797C10.3293 21.1478 10.5564 20.9874 10.7623 20.8021C10.8469 20.7327 10.9237 20.6557 11.0006 20.5786V14.9854C11.2571 14.6265 11.5566 14.3005 11.8923 14.0147C12.1139 13.8205 12.3532 13.6477 12.6072 13.4985L12.784 13.3984C13.4954 13.0109 14.2856 12.7912 15.0945 12.7562C15.9034 12.7212 16.7096 12.8716 17.4517 13.1962C18.1937 13.5207 18.8521 14.0107 19.3766 14.6289C19.9011 15.2471 20.2778 15.9771 20.4782 16.7633C20.6785 17.5495 20.6971 18.3712 20.5326 19.1657C20.3681 19.9603 20.0248 20.7067 19.5289 21.3481C19.033 21.9895 18.3975 22.509 17.6709 22.867C16.9443 23.2249 16.1457 23.412 15.3361 23.4138" fill="black"/>
<path d="M39.0029 11.7033C40.2743 11.6776 41.5173 12.082 42.5313 12.8512C42.9941 13.1783 43.387 13.5949 43.6867 14.0765C43.9864 14.5581 44.1868 15.095 44.2762 15.6555H48.0429C47.8124 13.6458 46.8552 11.7903 45.3524 10.4398C43.815 8.96058 41.555 8.22098 38.7031 8.22098C37.4123 8.17323 36.1264 8.40446 34.9326 8.89898C33.7389 9.39349 32.6653 10.1397 31.7848 11.0869C29.9624 13.1113 28.9952 15.7656 29.0867 18.4906C28.9769 21.2427 29.9263 23.9318 31.7387 26.0022C32.6097 26.9661 33.6798 27.728 34.8747 28.235C36.0695 28.7419 37.3603 28.9816 38.657 28.9375C40.0122 28.9595 41.3596 28.7296 42.6312 28.2595C43.703 27.8789 44.6734 27.2568 45.4677 26.4413C46.1474 25.7218 46.7149 24.9037 47.1512 24.0145C47.5566 23.1634 47.8362 22.2576 47.9814 21.3258H44.2762C43.9921 22.4561 43.3436 23.4609 42.4313 24.184C41.4782 24.9703 40.2756 25.3884 39.0414 25.3627C38.2363 25.3979 37.434 25.2466 36.6968 24.9206C35.9595 24.5946 35.3072 24.1026 34.7904 23.4829C33.7015 22.0552 33.1564 20.2851 33.253 18.4906C33.1581 16.7083 33.7036 14.9508 34.7904 13.5369C35.3071 12.9231 35.958 12.437 36.6926 12.1163C37.4272 11.7956 38.2257 11.649 39.026 11.6879" fill="black"/>
<path d="M61.4961 8.22034C60.2189 8.21959 58.9552 8.48181 57.7833 8.99076C56.6608 9.44845 55.6662 10.1729 54.8853 11.1017V0H50.5959V28.7365H54.8622V16.3251C54.8546 15.7061 54.9994 15.0948 55.2836 14.5452C55.5678 13.9956 55.9828 13.5247 56.4918 13.1741C57.6026 12.3519 58.9549 11.9237 60.3354 11.9569C61.5013 11.8839 62.6485 12.2773 63.5255 13.0508C63.9227 13.4543 64.2301 13.9376 64.4275 14.4687C64.6249 14.9999 64.7078 15.5669 64.6708 16.1325V28.7365H68.9525V15.6394C69.004 14.6501 68.8517 13.6608 68.5053 12.733C68.1588 11.8052 67.6255 10.9588 66.9385 10.2465C66.2129 9.56085 65.3573 9.02818 64.4224 8.68013C63.4875 8.33208 62.4924 8.17572 61.4961 8.22034Z" fill="black"/>
<path d="M81.4817 8.25946C80.1706 8.19299 78.8611 8.41747 77.6465 8.91688C76.432 9.4163 75.3425 10.1783 74.4558 11.1485C72.6923 13.2089 71.7747 15.8632 71.8883 18.5753C71.7939 21.2921 72.7368 23.9427 74.525 25.9867C75.3963 26.9496 76.4667 27.7104 77.6616 28.2161C78.8565 28.7217 80.1471 28.96 81.4433 28.9143C84.0056 28.9143 86.0273 28.2749 87.5083 26.996C88.8739 25.8479 89.7935 24.2554 90.1065 22.4967H86.6474C86.2681 23.4686 85.5718 24.2832 84.6718 24.808C83.6817 25.3786 82.5544 25.6664 81.4125 25.64C79.9997 25.6251 78.6484 25.0585 77.6459 24.0607C76.5312 22.9506 75.8986 21.4445 75.8856 19.8696H90.5601C90.6139 19.4198 90.637 18.9667 90.6293 18.5137C90.6293 15.432 89.8068 12.9487 88.1617 11.0638C87.3227 10.1327 86.2889 9.39856 85.1343 8.91383C83.9796 8.42909 82.7324 8.20566 81.4817 8.25946ZM75.9701 16.8496C76.1178 15.4094 76.7305 14.0569 77.7151 12.9975C78.2061 12.5228 78.7887 12.1536 79.4272 11.9125C80.0656 11.6714 80.7464 11.5635 81.4279 11.5954C82.0986 11.5627 82.7687 11.6712 83.395 11.9141C84.0213 12.1569 84.5898 12.5286 85.0639 13.0052C86.022 14.071 86.5981 15.4265 86.7012 16.8573L75.9701 16.8496Z" fill="black"/>
<path d="M102.737 11.7029C104.009 11.6772 105.252 12.0816 106.266 12.8508C106.727 13.1791 107.119 13.5961 107.419 14.0775C107.718 14.5589 107.92 15.0952 108.011 15.6551H111.77C111.536 13.6428 110.573 11.7865 109.064 10.4394C107.49 8.96022 105.271 8.22062 102.407 8.22062C101.116 8.17438 99.8306 8.40631 98.6371 8.90073C97.4436 9.39515 96.3699 10.1405 95.4885 11.0866C93.6779 13.1166 92.7196 15.769 92.8134 18.4903C92.7026 21.2438 93.6552 23.9342 95.4731 26.0018C96.3437 26.9661 97.4138 27.7283 98.6088 28.2353C99.8037 28.7423 101.095 28.9818 102.391 28.9371C103.749 28.9599 105.099 28.73 106.373 28.2591C107.445 27.8785 108.415 27.2565 109.21 26.441C109.889 25.7214 110.457 24.9033 110.893 24.0141C111.299 23.163 111.578 22.2573 111.723 21.3254H107.995C107.711 22.4558 107.063 23.4605 106.15 24.1836C105.024 25.0556 103.61 25.468 102.192 25.338C100.775 25.2079 99.4592 24.545 98.5094 23.4826C97.4205 22.0549 96.8754 20.2847 96.9721 18.4903C96.8806 16.7083 97.4256 14.952 98.5094 13.5365C99.0277 12.9226 99.68 12.4365 100.416 12.1158C101.152 11.7952 101.951 11.6486 102.753 11.6875" fill="black"/>
<path d="M128.557 28.7365H133.999L124.621 15.9476L132.454 8.22034H127.012L119.21 16.0092V0H114.943V28.7365H119.21V21.2866L121.677 18.8444L128.557 28.7365Z" fill="black"/>
</g>
<defs>
<clipPath id="clip0_959_31552">
<rect width="134" height="30" fill="white"/>
</clipPath>
</defs>
</svg>
