<svg width="87" height="164" viewBox="0 0 87 164" fill="none" xmlns="http://www.w3.org/2000/svg">
<path d="M86.2635 0.270085C86.1966 0.128874 85.9141 0.0396875 85.8398 0.307245L86.1891 0.701149L86.2635 0.270085Z" fill="#202020"/>
<path d="M84.6284 1.4364C84.6953 1.82288 84.9034 2.3357 85.4014 2.36542C85.1264 1.8749 85.3345 1.8972 84.9851 1.33978C85.0595 1.07966 85.3419 0.997904 85.4757 1.12425C85.4088 0.98304 85.7581 0.804667 85.55 0.537109C85.052 0.670888 84.8365 1.04993 84.9108 1.60734C84.7696 1.6445 84.7027 1.50329 84.6284 1.4364Z" fill="#202020"/>
<path d="M72.0383 24.1944L72.1639 24.0762C72.1196 24.1057 72.0753 24.1427 72.0383 24.1944Z" fill="#202020"/>
<path d="M64.4203 38.3897C64.4649 38.2783 64.4426 38.2039 64.4129 38.1816C64.3831 38.3006 64.3683 38.3972 64.4203 38.3897Z" fill="#202020"/>
<path d="M62.6737 40.5885C62.718 40.5442 62.7402 40.4998 62.7772 40.4629C62.7106 40.4925 62.6589 40.5368 62.6737 40.5885Z" fill="#202020"/>
<path d="M72.0378 24.1953L71.7039 24.507C71.83 24.6108 71.9117 24.366 72.0378 24.1953Z" fill="#202020"/>
<path d="M84.0411 5.16751C84.0633 5.07847 84.056 4.98943 84.0337 4.90039C84.0189 4.97459 84.004 5.04879 83.9818 5.11557C84.004 5.13783 84.0188 5.15267 84.0411 5.16751Z" fill="#202020"/>
<path d="M74.9366 17.7046L74.996 17.5859C74.9664 17.5265 74.9218 17.4598 74.8699 17.4004L74.9366 17.7046Z" fill="#202020"/>
<path d="M77.367 12.8223C77.2927 12.9263 77.6495 13.1493 77.7833 13.2756C77.6643 13.1344 77.6346 13.0155 77.6494 12.904C77.5825 12.8743 77.4934 12.8446 77.367 12.8223Z" fill="#202020"/>
<path d="M81.9751 5.47923L81.9972 5.31665C81.9972 5.36099 81.9825 5.4275 81.9751 5.47923Z" fill="#202020"/>
<path d="M73.0705 21.1324C73.0114 21.1102 72.9522 21.1028 72.9153 21.1102C72.9596 21.1324 73.0114 21.1324 73.0705 21.1324Z" fill="#202020"/>
<path d="M6.03285 158.055C6.01068 158.04 5.98854 158.033 5.96637 158.018C5.98854 158.062 6.01068 158.084 6.03285 158.055Z" fill="#202020"/>
<path d="M1.29897 162.723L1.32129 162.634C1.2544 162.59 1.18749 162.545 1.12061 162.508L1.29897 162.723Z" fill="#202020"/>
<path d="M59.894 44.8185C59.9014 44.8112 59.9014 44.8112 59.9088 44.8038C59.931 44.6634 59.9014 44.7299 59.894 44.8185Z" fill="#202020"/>
<path d="M39.0022 86.029C39.5745 85.7317 39.0394 87.0026 39.7677 86.4972C39.5894 86.4824 39.515 85.5608 39.0022 86.029Z" fill="#202020"/>
<path d="M83.9299 5.27148C83.9001 5.33837 83.8704 5.40526 83.8333 5.47215C83.8927 5.3904 83.9224 5.32351 83.9299 5.27148Z" fill="#202020"/>
<path d="M39.7678 86.497L39.8417 86.4453C39.8121 86.4675 39.79 86.4749 39.7678 86.497Z" fill="#202020"/>
<path d="M54.803 55.2384C54.8774 55.2532 54.9517 55.2384 55.0186 55.2161C54.9814 55.2012 54.922 55.2012 54.803 55.2384Z" fill="#202020"/>
<path d="M59.2913 47.8359L59.1434 47.9985C59.2173 47.9394 59.2617 47.8877 59.2913 47.8359Z" fill="#202020"/>
<path d="M53.2718 59.498C53.1902 59.5871 53.1233 59.5945 53.1011 59.7652C53.1233 59.7652 53.1457 59.7578 53.1679 59.7429C53.1457 59.6687 53.1531 59.5871 53.2718 59.498Z" fill="#202020"/>
<path d="M51.1392 63.651C51.1763 63.6436 51.2134 63.6287 51.2506 63.6139C51.2654 63.5693 51.2803 63.5172 51.2952 63.4727L51.1392 63.651Z" fill="#202020"/>
<path d="M12.358 145.346C12.2094 145.383 12.0608 145.383 11.927 145.368C12.2169 145.435 12.0013 146.096 12.358 145.346Z" fill="#202020"/>
<path d="M83.8333 5.06441C83.915 5.13874 83.9447 5.19819 83.9299 5.27252C83.9522 5.22049 83.967 5.1759 83.9819 5.12387C83.9298 5.07928 83.8778 5.04955 83.8333 5.06441Z" fill="#202020"/>
<path d="M56.1185 61.1758L55.7246 61.8075C55.851 61.644 55.9996 61.4136 56.1185 61.1758Z" fill="#202020"/>
<path d="M27.6457 115.543L27.6088 115.713C27.6532 115.669 27.6679 115.609 27.6457 115.543Z" fill="#202020"/>
<path d="M54.7659 63.7927C54.5727 63.8447 54.4314 63.9265 54.3199 64.0305C54.3348 64.0751 54.3423 64.1197 54.3795 64.1569L54.7659 63.7927Z" fill="#202020"/>
<path d="M10.5594 150.161C10.8938 149.537 10.2324 149.619 10.0243 149.344C10.2696 148.526 10.5594 149.18 10.9459 149.054C11.0574 148.519 10.7973 147.932 10.9905 147.59C11.0871 147.605 11.1465 147.553 11.206 147.686C11.0722 146.988 11.9418 146.207 11.756 145.382C11.8229 145.36 11.8749 145.36 11.9121 145.367C11.6222 145.338 11.3621 145.219 11.1986 145.107C11.3324 144.825 11.1614 144.424 11.533 144.483C11.4364 144.654 11.5553 144.728 11.6148 144.862L11.6297 144.498C12.2242 144.468 11.5777 144.981 11.9195 145.159C12.0682 144.505 12.031 143.643 12.3878 143.264C12.8857 143.405 12.0087 144.372 12.7073 143.992L12.1871 144.587C13.1607 144.431 11.927 144.974 12.9303 144.884C13.5249 144.052 13.2201 143.762 13.8147 142.937C13.666 142.61 13.4133 142.811 13.2647 142.484C13.4728 140.982 14.9073 142.06 14.7958 140.819C14.6248 140.425 14.1045 140.039 14.7437 139.526L15.1376 140.016C15.6356 139.169 14.662 139.147 15.4721 138.411C15.591 138.678 15.2863 139.184 15.4126 139.08C16.1187 138.693 15.3383 138.515 15.5761 138.062L16.0741 138.203C16.4829 137.244 16.6836 136.055 17.1295 134.985C17.2335 135.111 17.2855 135.356 17.5456 135.193C17.9841 133.781 19.0247 132.458 19.9314 131.35L19.7902 130.674C19.8496 130.563 20.0726 130.555 20.0875 130.719C20.4814 130.31 19.8571 130.57 19.8199 130.258C19.9388 129.968 20.2287 130.005 20.2584 130.243C20.3699 129.217 20.8084 127.434 21.6928 126.742L21.7151 126.98C22.2353 126.356 21.3286 125.776 22.0273 125.308L22.0347 125.472C22.9934 124.03 23.5062 122.157 24.6879 121.295C24.242 120.782 25.7136 119.912 24.9852 119.414C25.8176 118.738 25.8325 119.065 26.7243 117.965C26.9324 117.653 26.4866 117.222 26.6204 116.776L27.0365 116.977L26.8954 116.204L27.5345 116.159L27.6237 115.728C27.5196 115.869 27.2744 115.958 27.1703 115.869C27.2893 115.178 28.2034 114.569 28.4189 114.658L28.7979 113.075C28.9466 113.194 28.8797 113.454 28.8871 113.692C28.8574 112.725 29.3851 113.773 29.3628 112.889C29.2216 112.933 29.1473 112.711 29.0729 112.659C29.4966 112.443 29.8979 111.663 30.0911 111.031L30.3141 111.284C30.9236 110.28 31.31 109.017 31.9194 107.85C31.5701 108.199 31.1391 107.857 31.2655 107.486L31.7634 107.567C31.6147 107.211 31.4141 107.842 31.3249 107.218C31.5999 106.809 31.9641 107.174 31.9789 107.501L32.1052 106.891C32.2464 106.928 32.2539 107.084 32.4025 107.203C32.2464 106.847 33.3093 106.512 33.0046 105.955L33.1457 105.992C33.7552 104.825 33.8741 104.216 34.3497 103.257C33.9856 103.049 34.2606 102.714 34.112 102.276C34.5876 101.637 35.2862 101.012 35.6876 100.15C35.8065 99.459 35.4646 99.8157 35.3754 99.4367C35.7396 99.5704 36.1409 98.7083 36.1558 99.2732C36.624 98.2327 36.7578 97.9428 37.1368 96.5233C36.9287 96.5902 36.7875 96.7165 36.7132 96.5753C36.7801 96.3152 37.1294 96.1219 37.2706 96.2334V96.3152C37.501 94.6132 39.9685 93.5058 39.8496 91.9971V92.0788L40.0948 90.7039C40.4367 90.1911 40.184 91.1647 40.6002 90.8674C40.6968 89.2992 41.7225 88.883 41.8934 87.6418C43.313 87.3371 43.313 84.7061 44.5244 83.9332L44.2569 83.8737C44.1751 83.4724 44.569 83.5987 44.7325 83.4129C44.5319 83.346 44.3609 83.6136 44.3237 83.3683C45.2825 80.8117 47.2298 78.5672 48.7236 76.2037C49.2513 75.3342 47.7722 75.0666 48.9242 74.2119L49.1918 74.7619C49.608 72.666 51.1316 71.0384 51.6073 69.0243C51.6519 69.1803 51.7857 69.2547 51.689 69.4256C52.2019 69.2101 52.4248 68.0358 52.1647 67.8946C52.3357 67.6344 52.4322 67.954 52.6552 67.85C53.0342 67.5676 52.737 66.6906 53.1606 66.6534C53.2275 66.646 53.2051 66.8095 53.1977 66.8912C53.168 66.5642 53.8295 65.7615 53.339 65.8061C53.8592 65.2264 53.8369 64.4386 54.3274 64.015C54.097 63.4576 55.1152 62.967 54.595 62.5583C55.1672 62.915 55.68 61.6293 55.6206 61.0644C55.7246 61.3022 55.9997 60.7894 56.1632 61.0867C56.401 60.5962 56.5199 60.0982 56.1706 60.0239C57.3448 59.5037 56.5199 57.9355 57.6942 57.9057C58.1104 56.3004 58.5786 54.8586 59.1063 53.4985C59.6786 53.8552 58.43 54.9552 59.084 55.2227C59.4705 53.8701 59.3218 52.8965 60.0948 51.7593C60.34 51.4844 60.2583 52.0715 60.3103 52.2276C60.6968 50.8749 61.5887 49.8864 61.8265 48.6304C61.8785 48.6601 61.8785 48.8088 61.8711 48.9426C61.9603 48.7196 62.2129 48.4892 61.9305 48.3703L61.8934 48.6155C61.3211 48.7568 61.5143 47.3372 61.3211 47.196C61.9082 47.9615 62.0718 46.2224 62.7555 47.3075C62.7778 47.1365 62.7407 46.8987 62.54 46.8318C62.7035 46.646 62.8447 46.6386 62.9413 46.9582C63.194 46.1109 62.763 46.2372 63.1272 45.5461C63.2535 45.6129 63.2386 45.7839 63.3501 45.9325C63.2757 45.4494 63.2014 44.9589 63.6176 44.4312C63.6771 44.5056 63.8183 44.4907 63.7217 44.6691C64.2048 43.636 63.9298 42.5955 64.7473 41.607C65.1487 42.2313 65.1263 41.3246 65.654 41.5178L65.8176 40.8415L65.4534 40.9604C65.7284 40.4402 65.6095 39.7936 66.0034 39.4294V39.9199L66.4121 38.8943L65.9364 39.3551C65.9587 38.6936 65.2824 39.0875 65.7804 38.4632C65.7581 38.6341 66.0553 37.9429 66.4864 37.824C66.4641 37.4822 66.4345 37.1328 66.7541 36.8058C66.9622 36.7835 67.2594 37.17 67.3932 37.1551C67.1108 36.6869 67.9134 35.8694 67.6384 35.3194C67.683 35.4829 67.9432 35.6167 68.01 35.6093L67.787 35.2228C68.0174 35.037 68.0918 35.0295 68.2776 35.1708C68.7161 34.4721 67.5343 35.0816 68.2478 34.3532C68.2404 34.435 68.3073 34.4275 68.285 34.5985C68.8722 33.8032 68.9391 32.8073 69.5114 32.0938C70.1282 32.1161 69.2735 32.8519 69.8309 32.7999C70.3363 31.6033 70.4626 30.1095 71.1538 29.0541L70.9903 29.2325C70.366 28.7196 71.7633 28.5784 71.7261 27.8501C71.7038 28.0136 72.0234 28.2291 71.9639 28.1548C72.4693 27.4487 72.5957 26.5049 72.9673 25.234L73.0714 25.4718C73.4653 25.1076 73.7774 24.3347 74.1044 23.8887C74.0003 23.6509 74.1713 23.3908 73.822 23.4205C75.6205 22.4543 74.7436 20.2841 76.282 19.3923C76.2003 19.5558 76.2449 19.8531 76.3118 19.7267L76.728 18.5078C76.3786 18.441 76.4679 18.5599 76.1037 18.6788C75.9996 18.441 76.0219 18.047 76.1631 17.7721C76.1036 18.3889 76.6537 18.0173 76.9361 17.891C76.8246 17.8761 76.7577 17.7498 76.6536 17.72C77.5009 17.4079 76.0888 17.3038 76.8692 16.687L77.0104 16.8133C77.0847 16.4714 77.0178 16.085 77.2259 15.7802C77.6496 15.8248 77.2259 16.189 77.5084 16.3599C77.7239 15.8917 77.3077 15.1113 77.8725 14.8809C77.8725 15.1262 77.7313 15.4086 77.7238 15.6539C78.3704 15.4161 78.2962 15.312 78.534 15.0073L78.5042 15.037L79.0914 14.3607L78.8759 14.5019C78.2516 13.454 79.307 13.2459 79.1063 12.1682C79.2921 13.2087 79.3738 12.4655 79.7455 12.7256C79.961 12.5844 80.236 12.354 80.3029 12.4952C80.1691 11.9675 80.8677 12.0196 80.667 11.2615C80.8083 11.3061 80.8825 10.875 81.1649 11.1277C81.3061 10.6 80.8826 11.1277 80.7413 11.0014C80.6745 10.0426 82.1608 9.55952 82.094 8.19943C82.3095 7.16636 81.9676 6.77246 82.1831 5.82114C82.5324 5.64277 82.5325 6.2968 82.5325 6.2968C82.9562 5.94005 83.0974 5.57588 83.1791 5.07049C83.246 5.21913 83.3872 5.17454 83.6027 5.11508C83.7439 4.75091 83.2534 4.63942 83.677 4.28268C83.7811 4.43132 83.9595 4.65429 84.019 4.89212C84.1081 4.42389 84.0784 3.89621 84.1824 3.41312C84.4649 3.41312 84.3905 3.84418 84.4649 4.06715C84.6061 3.53946 84.8959 2.72936 84.6135 2.40234L84.331 2.64017C84.4054 2.4618 84.6804 2.70706 84.6804 2.87057C84.7473 3.42055 84.2568 3.39082 84.1156 3.35366L84.1899 3.01178C83.2757 2.93003 83.6919 4.28268 83.3352 4.86239L82.919 4.32727L83.0527 5.18197C82.8446 5.24143 82.4879 5.17454 82.5622 4.83266C82.0642 5.12995 82.5622 5.31575 82.0643 5.53128C81.9974 5.54615 81.9825 5.51642 81.9751 5.46439L81.923 5.96978C81.8487 5.82857 81.4994 5.84343 81.7149 5.62047C81.0089 6.21504 81.492 7.06231 80.9271 7.1292V7.04745C80.5704 8.19943 81.2764 7.3596 81.3433 8.39267L80.0724 8.41496L80.4217 8.72711C80.3474 8.83116 80.2062 9.03183 80.0724 8.90549C80.1393 9.45547 80.2805 8.92778 80.4217 9.29939C79.7826 9.63384 79.8495 10.8378 79.1434 10.6223C79.3515 10.9716 79.6414 10.2433 79.5671 10.9122C78.7941 10.7189 79.3515 11.6182 78.7867 11.9378C78.5043 11.6034 78.9279 11.2466 78.3631 11.5662C78.8164 12.1682 77.7536 12.4283 77.657 12.8966C78.1252 13.1641 77.4043 13.8776 77.2111 14.6357C77.0699 14.5093 76.2895 15.7728 75.7915 16.3154L75.7172 16.2559C76.1408 16.6275 75.7098 17.2295 75.5686 17.7572C75.2862 17.5863 75.2192 17.445 75.2192 17.118L74.9889 17.564C75.0929 17.7498 75.1003 17.9281 75.0037 18.2477L74.699 17.9504C74.4166 18.5524 74.5132 19.3625 73.874 20.0017C74.1936 20.2172 75.13 19.8828 74.9368 20.8044C74.7361 20.7375 74.4092 20.6111 74.4463 20.3584C74.4315 20.4402 74.4686 20.6855 74.3199 20.7821L74.1788 20.299C73.8666 20.574 74.3423 20.6111 74.1713 20.8787C73.9112 20.7375 73.8815 20.9902 73.6957 20.8415C73.7105 20.7598 73.9261 20.6557 73.8815 20.4922C73.6734 20.7821 73.3241 21.0794 73.0639 21.1017C73.2275 21.1537 73.4132 21.28 73.3315 21.5327C73.0416 22.1347 72.9153 21.5773 72.6032 21.8523C72.7072 22.0901 72.3281 22.3726 72.7146 22.5807C72.6254 22.7516 72.4247 22.6922 72.2835 22.707C72.2984 23.1009 71.5923 24.1637 72.1869 24.0374L72.2538 23.9705C72.2538 23.9928 72.2463 24.0076 72.2463 24.0299C72.1126 25.2339 70.9457 26.0069 70.6039 27.092L70.4775 27.0251C70.3214 27.694 69.8829 28.3926 69.9424 28.9649C69.8532 29.1433 69.489 29.2548 69.3701 29.1061C69.2363 29.6115 69.3553 29.7378 68.7979 30.2878C68.8053 29.7155 68.5155 30.3398 68.8722 29.7304C68.456 30.2655 68.1736 30.2878 68.2033 31.1128C67.9803 30.7263 67.5492 31.3432 67.5046 31.6776L67.9581 31.3878C67.8466 31.7297 67.6682 31.9898 67.4973 32.2573L67.133 31.8783C65.9736 32.8148 66.9175 34.5316 65.5499 34.9924C65.6912 35.468 66.1074 34.4498 66.3155 34.9181C65.9662 35.4457 65.0372 35.6984 64.948 35.8768C64.3088 36.516 65.223 36.9173 64.6432 37.6308C64.8513 37.6085 65.3196 37.7274 65.1636 38.4037C64.8217 38.9314 64.1528 38.7531 64.2048 38.3369C64.2568 38.1956 64.346 38.1585 64.3906 38.1882C64.4277 37.9801 64.4798 37.7051 64.1973 37.8389L64.3163 37.995C64.0116 38.1882 63.6325 38.9612 63.469 38.649C63.4021 39.147 63.6325 38.9612 63.8777 38.6936C63.2831 39.2882 63.298 39.8084 62.7629 40.4625C62.9115 40.3881 63.1494 40.3807 63.09 40.4922C62.3393 41.4732 63.142 41.1239 62.8373 41.8894C62.3839 42.1793 62.3467 41.4435 62.1609 42.2833C61.767 42.6475 61.6927 42.1644 61.6629 41.9192C61.6184 42.7441 60.8157 43.0711 60.563 43.4279L60.6151 43.0117C60.5779 43.2644 60.4887 43.4353 60.3995 43.6063L60.8157 43.5691C60.6522 43.7475 60.5631 43.9258 60.4367 43.8515C60.5333 44.1711 61.0461 43.9556 61.1055 44.5279C60.8008 44.7211 60.8454 45.4569 60.3772 45.338C60.9643 44.5427 59.909 45.219 60.2211 44.4461C60.1989 44.617 60.1097 44.788 59.9462 44.9663C59.8867 44.9738 59.8719 44.892 59.8793 44.8251C59.0766 45.4643 60.1542 45.4494 59.7008 46.3041C59.5225 46.0737 59.1509 46.2744 59.1286 46.4379C59.3144 46.096 59.6042 46.4751 59.6191 46.8838C59.1509 47.3446 59.4482 47.5527 59.2773 47.8352L59.5299 47.5453C59.7083 47.7757 59.53 48.0358 59.4111 48.4595C59.2104 48.4 59.4631 48.0433 59.3144 48.1399C59.5077 48.779 58.3928 48.8905 58.3557 49.6263C58.051 49.8195 57.9023 49.4256 57.6719 49.6114C57.6347 50.4364 56.9807 50.1689 56.8692 51.0013C57.2854 50.9641 57.2334 50.8824 57.2854 51.5364L57.657 50.2655L57.7314 51.2465C57.9172 50.8972 57.9097 50.4067 58.0732 50.2283C58.1476 50.7114 58.0881 50.6371 58.4374 50.6074C57.7165 50.8378 58.2219 51.6925 57.6199 52.0864L56.8469 51.6702C56.074 52.3242 56.4902 53.3498 55.7395 54.3234L56.0517 54.0485C56.2895 54.3532 55.7544 54.7322 55.695 55.1484C55.4497 54.9849 55.2416 55.1484 55.0038 55.2153C55.2044 55.2971 54.5802 55.9957 55.0484 56.3599L54.4538 56.6646C53.8666 57.4598 54.6842 58.0395 54.1639 58.8273C54.0078 58.426 53.6288 58.7159 53.718 58.047C53.5694 58.3219 53.3909 58.5523 53.5693 58.649C53.324 58.7307 53.5247 59.6077 53.1383 59.7341C53.1903 59.9124 53.443 60.0908 53.2647 60.3955C53.1978 60.403 53.1383 60.3286 53.1383 60.3286C53.2646 60.3955 53.0639 60.9083 53.4876 60.782C52.2315 61.2205 52.3059 63.2123 51.2208 63.6062C50.9978 64.2603 50.7005 65.0406 50.433 65.598C50.3735 65.5237 50.3067 65.5311 50.3884 65.442C49.7492 66.0811 50.8938 66.2967 50.1803 67.025C49.5337 67.248 50.1877 66.4453 49.8904 66.6385C48.9688 66.3189 49.4668 67.7459 48.6641 68.0729L48.6864 67.902C48.1662 68.1993 48.4486 69.158 48.0101 69.8567C48.0101 69.8567 47.9507 69.7823 47.8838 69.7823C48.0621 70.5033 47.7202 71.5289 47.4824 72.287C47.2594 71.8931 47.4676 71.8782 47.0588 71.8336C46.9473 72.1755 47.6534 72.0269 47.423 72.7032C47.1331 72.8147 46.7392 73.1863 46.3453 73.0525L46.6277 72.4505C46.0034 72.5099 46.2487 73.2234 46.0034 73.4984L45.8176 73.3498C45.4163 74.2937 45.9291 74.5687 45.3866 75.5274L45.5946 75.5051C45.8324 76.3004 45.0744 75.8024 45.1859 76.5308L44.5839 76.4193C44.5318 76.8355 44.4501 77.9131 44.2271 78.5895C44.0265 78.032 44.2048 77.1922 44.2122 76.6199C44.0264 76.9692 43.64 77.8239 43.8035 78.1361C43.8258 77.9726 43.7886 77.7273 43.9373 77.6307C44.1231 78.2699 44.0413 78.9388 43.6697 79.63C42.7184 78.9834 42.4806 81.3096 41.4326 81.4062C41.1725 82.8258 40.0131 83.7622 39.3368 85.2264C40.3847 85.1223 39.1436 85.6574 39.9983 85.9845C39.8793 86.3412 39.7975 86.4676 39.7306 86.4676L38.7273 87.2331C38.3706 87.352 38.7124 86.8243 38.5192 86.7648C38.0807 87.4635 38.0213 86.8912 37.5531 87.2702C37.8949 87.3223 37.8354 87.7384 37.5084 88.0952L38.1848 87.7013C38.0882 88.9425 37.0551 88.2364 36.951 89.485L36.8618 89.0316C36.7429 89.6337 35.8511 90.9789 36.2375 91.8261C36.0963 91.8707 35.8139 91.8782 35.8734 91.618C35.1227 92.8295 35.1153 94.7841 34.2086 95.5571L34.0599 95.3564C33.993 95.624 34.216 95.9584 33.8667 96.1517C33.7924 96.0922 33.7181 95.9584 33.6512 96.055C33.6586 96.2111 33.6735 96.8577 33.3985 97.1104L33.3167 96.7314C32.4248 97.8313 32.8856 98.9016 32.4843 100.002C31.9046 99.6968 31.2134 100.574 30.8715 101.005L30.7972 100.945C29.9871 102.343 30.0243 103.628 29.5709 105.07C28.5156 105.568 27.8689 107.724 26.8284 108.868C27.0365 108.719 27.2669 109.136 27.2 109.403C26.925 109.656 27.1629 110.473 26.65 110.146L26.7169 110.042C26.0703 110.005 25.8845 110.719 25.6095 111.209L26.2636 111.648C24.5765 112.428 24.8738 115.26 23.6029 115.498C23.6177 115.899 23.4096 116.293 23.4245 116.694L23.0603 116.486C22.5178 117.311 22.2428 117.72 21.7746 118.842L21.6185 118.485C21.284 119.08 22.3023 119.808 22.0347 120.381L21.3881 120.262C20.853 121.324 19.805 122.149 19.7753 123.457C19.701 123.398 19.5598 123.286 19.6192 123.101C19.3443 123.591 18.2442 124.84 19.1064 125.048C18.601 124.803 18.497 126.118 18.4152 126.802L18.0956 126.519C18.3186 127.248 18.4375 127.33 18.222 128.073C18.0882 128.207 17.8578 128.058 18.0585 127.894C17.5903 128.326 18.1923 128.489 17.6646 129.032L17.5531 128.667C17.2409 129.202 17.3896 129.225 17.5085 129.663C17.4788 130.087 16.8767 130.659 16.5051 130.563C16.6686 130.741 16.7876 131.179 16.5274 131.454C16.3788 131.432 16.3639 131.276 16.3565 131.194C15.6356 131.982 16.0815 132.777 15.3977 133.223C15.2714 133.171 15.1896 133.186 15.1227 133.216C15.5092 132.495 15.8289 131.915 15.8289 131.982C15.487 131.804 15.1228 132.369 14.8998 131.655C14.9147 132.257 15.0485 133.357 14.5951 133.848C14.5505 133.855 14.4985 133.87 14.439 133.862L14.4316 133.781C14.3276 133.892 14.2978 134.033 14.2978 134.175C14.1491 134.331 14.0451 134.427 13.9485 134.598C13.6289 134.524 13.4505 135.193 13.287 135.483C13.6735 135.654 13.4133 136.003 13.9039 135.802C13.8518 135.832 13.8891 135.721 13.9708 135.52C13.9857 135.468 14.0005 135.416 14.0005 135.371C14.0079 135.379 14.0154 135.393 14.0228 135.408C14.112 135.208 14.2309 134.955 14.3721 134.665C14.439 134.992 14.4762 135.319 14.1045 135.535C14.2681 135.81 14.4241 136.1 14.491 136.256C13.7627 136.389 13.0863 137.021 12.7147 136.962C12.462 137.965 11.7634 139.147 12.1722 140.068C12.1276 140.373 11.8229 140.262 11.6594 140.299C11.6669 140.113 11.7634 139.949 11.704 139.816C11.6222 140.418 10.9979 141.362 11.4215 141.733C10.8716 142.261 11.1614 141.139 10.7824 142.068L10.6932 141.874C9.02097 143.212 10.4851 145.338 8.49332 146.75C8.61966 146.646 8.68656 146.594 8.78318 146.609C7.21499 148.578 6.86567 151.343 5.05222 153.149C4.59143 153.691 4.8738 153.922 4.91096 154.42L4.44273 154.346L4.56911 155.222C4.43533 156.308 2.77798 156.293 2.82257 157.779L3.16442 157.772C2.89686 158.158 2.64413 159.162 2.37657 158.939C2.4063 159.005 2.58475 159.221 2.36178 159.31L2.14622 159.214L1.98273 160.418C1.42532 161.131 1.21722 159.868 0.585483 160.997C0.444272 161.466 0.563201 162.528 0.786166 162.439C0.882784 162.268 1.14283 162.068 1.35837 162.157L1.26918 162.603C1.84889 162.989 2.32458 163.613 3.24617 162.878L3.21641 162.015L3.62521 161.956L3.35023 162.528C3.79616 162.357 3.65491 162.023 3.59545 161.711C3.78126 161.74 3.94478 161.703 4.07112 161.599L3.81846 160.641C4.10088 160.685 4.1455 161.183 4.50225 160.811C4.39077 160.366 3.81101 160.826 3.89276 160.224C4.33869 160.046 4.51708 160.262 4.47249 159.764C4.65829 159.793 4.71771 159.927 4.71028 160.105C4.69542 159.674 5.08937 159.176 4.85154 158.835C5.37179 158.678 5.342 157.66 5.90685 157.995C5.82509 157.816 5.75084 157.17 5.88462 156.85C6.29339 157.772 6.51636 155.72 7.19269 156.256C6.77649 155.52 7.69061 154.613 7.72034 153.699C7.75007 153.766 7.80955 153.9 7.74266 153.944C8.01022 153.558 8.25542 153.535 8.51554 153.327C8.02502 153.008 8.2406 152.302 8.09939 151.789C8.85747 151.536 8.54531 152.413 9.11015 152.495C8.67909 152.302 9.14728 151.395 8.70879 151.388C9.22161 151.157 9.02839 151.127 9.5635 151.15C8.95407 150.748 9.63785 150.733 9.40746 150.206C10.0169 149.812 10.0912 150.377 10.2101 149.656C10.6114 149.5 10.5594 150.161 10.5594 150.161ZM17.0031 134.91C17.0031 134.91 17.0105 134.91 17.0105 134.918C16.9511 135.052 16.9065 135.163 16.8767 135.23C16.9065 135.163 16.9436 135.074 17.0031 134.91ZM17.6348 133.677C17.5456 133.818 17.4416 134.004 17.345 134.204C17.1963 134.182 17.0848 134.063 17.1592 133.944C17.2037 134.056 17.4342 133.803 17.6348 133.677ZM13.7181 134.955C13.7626 134.732 13.8742 134.702 13.9634 134.717C13.9188 134.814 13.8816 134.925 13.8296 135.081C13.837 135.096 13.8519 135.111 13.8668 135.126C13.7999 135.074 13.7478 135.022 13.7181 134.955Z" fill="#202020"/>
<path d="M14.0227 135.557C14.0153 135.587 14.0227 135.617 14.0078 135.654C14.0598 135.631 14.1119 135.609 14.1491 135.579C14.1193 135.535 14.0971 135.49 14.0673 135.453C14.0525 135.49 14.0376 135.527 14.0227 135.557Z" fill="#202020"/>
<path d="M72.1867 24.0523L72.1646 24.0745C72.1867 24.0597 72.2163 24.0449 72.2458 24.0449C72.2237 24.0523 72.2089 24.0523 72.1867 24.0523Z" fill="#202020"/>
<path d="M27.1177 117.015L27.0291 116.971L27.0512 117.119L27.1177 117.015Z" fill="#202020"/>
<path d="M76.9658 17.9206C77.0028 17.9279 77.0545 17.9132 77.1062 17.8836C77.0766 17.8688 77.0249 17.891 76.9658 17.9206Z" fill="#202020"/>
<path d="M78.5562 15.0304L78.905 14.6816C78.7343 14.8226 78.6378 14.9339 78.5562 15.0304Z" fill="#202020"/>
<path d="M79.908 12.8659C79.8563 12.8067 79.8119 12.7698 79.775 12.7402C79.775 12.7402 79.775 12.7402 79.7676 12.7402L79.908 12.8659Z" fill="#202020"/>
<path d="M61.8563 48.959C61.8415 48.9887 61.8341 49.0259 61.8267 49.0556C61.7969 49.2934 61.8415 49.1448 61.8563 48.959Z" fill="#202020"/>
<path d="M66.4938 37.8398C66.5013 37.9885 66.5087 38.1371 66.4938 38.2709C66.6128 38.1 66.7019 37.9513 66.4938 37.8398Z" fill="#202020"/>
<path d="M56.163 61.1107C56.1556 61.1107 56.163 61.1033 56.163 61.1107C56.1483 61.1329 56.1334 61.155 56.1187 61.1772L56.163 61.1107Z" fill="#202020"/>
<path d="M66.2263 38.762C66.3973 38.6134 66.4641 38.4424 66.4864 38.2715C66.3824 38.4127 66.2486 38.5762 66.2263 38.762Z" fill="#202020"/>
<path d="M85.1115 3.17539L85.1853 3.07193C85.1632 3.06454 85.141 3.04237 85.1336 3.02759L85.1115 3.17539Z" fill="#202020"/>
<path d="M85.1336 3.03299L85.1484 2.89258C85.1188 2.94431 85.0967 2.99604 85.1336 3.03299Z" fill="#202020"/>
<path d="M85.1857 2.58984L85.1487 2.89407C85.1932 2.80503 85.2673 2.70115 85.1857 2.58984Z" fill="#202020"/>
<path d="M83.4021 6.07422L83.5204 6.17768C83.4982 6.14812 83.4612 6.11117 83.4021 6.07422Z" fill="#202020"/>
<path d="M82.9709 7.0027C83.1121 6.80204 83.5357 6.6088 83.6101 6.25949L83.5209 6.17773C83.6472 6.423 82.852 6.67569 82.9709 7.0027Z" fill="#202020"/>
<path d="M79.359 9.93255L79.8569 9.22649C79.6414 9.28595 79.359 9.36027 79.5077 8.99609C78.5861 9.73931 79.9313 8.96637 79.359 9.93255Z" fill="#202020"/>
<path d="M77.9316 12.184C78.0726 11.7387 77.7239 12.0801 77.6497 12.0207C77.6497 12.3398 77.6497 12.4214 77.9316 12.184Z" fill="#202020"/>
<path d="M69.1466 29.2171L68.8275 29.002C68.7162 29.3433 68.9611 29.0762 69.1466 29.2171Z" fill="#202020"/>
<path d="M69.2215 33.3804L69.5857 33.1797L69.3553 32.875L69.2215 33.3804Z" fill="#202020"/>
<path d="M65.8175 34.0639L65.8398 33.9004L65.6912 34.4875L65.8175 34.0639Z" fill="#202020"/>
<path d="M51.1912 62.7445L51.6594 62.8634C51.6891 62.6107 51.2432 62.3209 51.1912 62.7445Z" fill="#202020"/>
<path d="M45.2453 75.3127C44.9703 75.3425 44.6582 75.6175 44.7473 75.937C44.9257 75.6769 45.2305 75.4837 45.2453 75.3127Z" fill="#202020"/>
<path d="M25.4758 112.02L25.4609 111.693L25.3345 112.221L25.4758 112.02Z" fill="#202020"/>
</svg>
