<svg width="396" height="88" viewBox="0 0 396 88" fill="none" xmlns="http://www.w3.org/2000/svg">
<g clip-path="url(#clip0_1292_3668)">
<path d="M35.1445 18.0813C28.1923 18.1037 21.4028 20.1755 15.6338 24.035C9.86484 27.8946 5.37529 33.3686 2.73243 39.7655C0.0895819 46.1624 -0.587969 53.1951 0.785392 59.9749C2.15875 66.7547 5.5214 72.9774 10.4484 77.8568C15.3755 82.7361 21.6458 86.0532 28.4671 87.3887C35.2885 88.7243 42.3547 88.0185 48.773 85.3605C55.1913 82.7025 60.6735 78.2116 64.5271 72.4552C68.3807 66.6988 70.4327 59.9353 70.4237 53.0192C70.4208 48.4186 69.5051 43.8638 67.7291 39.6159C65.9532 35.3681 63.3519 31.5107 60.0744 28.265C56.7969 25.0192 52.9077 22.4489 48.6297 20.7014C44.3517 18.9538 39.7691 18.0635 35.1445 18.0813ZM45.4352 68.6576C42.8008 68.6654 40.2069 68.0125 37.8932 66.7593L37.3707 66.4655C37.5558 66.3115 37.7304 66.1454 37.8932 65.9683C38.9871 64.9102 39.9413 63.718 40.7328 62.4203C42.3433 63.2253 44.134 63.607 45.9347 63.529C47.7353 63.4511 49.486 62.9161 51.0201 61.9749C52.5542 61.0338 53.8207 59.7178 54.6991 58.1522C55.5776 56.5866 56.0387 54.8235 56.0387 53.0305C56.0387 51.2375 55.5776 49.4743 54.6991 47.9087C53.8207 46.3431 52.5542 45.0272 51.0201 44.086C49.486 43.1449 47.7353 42.6099 45.9347 42.5319C44.134 42.454 42.3433 42.8357 40.7328 43.6406C39.9689 44.0117 39.2583 44.483 38.6202 45.0418L37.8932 45.6971V62.1265C36.6157 63.8719 35.0017 65.3469 33.1454 66.4655L32.6229 66.7593C30.3181 68.0143 27.7311 68.6674 25.1036 68.6576C20.9344 68.6576 16.936 67.01 13.9879 64.0772C11.0398 61.1444 9.38358 57.1667 9.38358 53.0192C9.38358 48.8716 11.0398 44.8939 13.9879 41.9611C16.936 39.0284 20.9344 37.3808 25.1036 37.3808C27.7331 37.3778 30.3202 38.0388 32.6229 39.3017C32.8044 39.386 32.9791 39.4843 33.1454 39.5954L32.6229 40.0926C31.5427 41.1572 30.5968 42.3487 29.806 43.6406C28.1955 42.8357 26.4048 42.454 24.6042 42.5319C22.8035 42.6099 21.0529 43.1449 19.5188 44.086C17.9847 45.0272 16.7182 46.3431 15.8397 47.9087C14.9613 49.4743 14.5001 51.2375 14.5001 53.0305C14.5001 54.8235 14.9613 56.5866 15.8397 58.1522C16.7182 59.7178 17.9847 61.0338 19.5188 61.9749C21.0529 62.9161 22.8035 63.4511 24.6042 63.529C26.4048 63.607 28.1955 63.2253 29.806 62.4203C30.5255 62.0332 31.1966 61.5629 31.8051 61.0192C32.055 60.8158 32.2822 60.5898 32.5093 60.3638V43.957C33.2672 42.9042 34.1522 41.9478 35.1445 41.1096C35.7993 40.5399 36.5066 40.033 37.2571 39.5954L37.7796 39.3017C39.8819 38.165 42.2172 37.5208 44.6077 37.418C46.9981 37.3152 49.3806 37.7566 51.5736 38.7086C53.7666 39.6606 55.7122 41.098 57.2622 42.9113C58.8121 44.7246 59.9256 46.866 60.5176 49.1722C61.1097 51.4784 61.1647 53.8887 60.6786 56.2193C60.1924 58.5499 59.1779 60.7394 57.7123 62.6208C56.2467 64.5023 54.3687 66.0261 52.2215 67.0762C50.0742 68.1263 47.7143 68.6749 45.3216 68.6802" fill="white"/>
<path d="M115.262 34.3294C119.02 34.2541 122.693 35.4403 125.689 37.6966C127.057 38.656 128.218 39.8781 129.104 41.2909C129.99 42.7037 130.582 44.2785 130.846 45.9226H141.977C141.296 40.0274 138.468 34.5846 134.027 30.6232C129.483 26.2842 122.804 24.1147 114.376 24.1147C110.562 23.9746 106.761 24.6529 103.234 26.1035C99.7059 27.5541 96.5333 29.7429 93.9313 32.5215C88.5457 38.4598 85.6872 46.2456 85.9577 54.239C85.6333 62.3116 88.4391 70.1997 93.795 76.2729C96.3688 79.1003 99.5314 81.3353 103.062 82.8224C106.593 84.3094 110.408 85.0126 114.24 84.8831C118.245 84.9476 122.227 84.2734 125.985 82.8944C129.152 81.7778 132.02 79.9532 134.367 77.561C136.376 75.4505 138.053 73.0506 139.342 70.4424C140.54 67.9457 141.367 65.2888 141.796 62.5554H130.846C130.006 65.8711 128.09 68.8183 125.394 70.9396C122.577 73.2459 119.023 74.4725 115.376 74.3972C112.997 74.5003 110.626 74.0565 108.447 73.1002C106.268 72.1439 104.341 70.7008 102.814 68.8831C99.5955 64.6951 97.9845 59.5027 98.2702 54.239C97.9897 49.0107 99.6016 43.8555 102.814 39.7079C104.34 37.9075 106.264 36.4816 108.435 35.541C110.606 34.6003 112.965 34.1702 115.331 34.2842" fill="white"/>
<path d="M181.735 24.113C177.96 24.1108 174.226 24.88 170.762 26.3729C167.445 27.7155 164.506 29.8406 162.198 32.565V0H149.522V84.2938H162.13V47.887C162.108 46.0713 162.535 44.2781 163.375 42.666C164.215 41.0539 165.442 39.6725 166.946 38.6441C170.229 36.2324 174.225 34.9761 178.304 35.0734C181.75 34.8594 185.14 36.0135 187.732 38.2825C188.906 39.4661 189.814 40.8835 190.398 42.4416C190.981 43.9996 191.226 45.663 191.117 47.322V84.2938H203.77V45.8757C203.922 42.9737 203.472 40.0717 202.448 37.3502C201.424 34.6287 199.848 32.1459 197.818 30.0565C195.674 28.0452 193.145 26.4827 190.383 25.4617C187.62 24.4408 184.679 23.9821 181.735 24.113Z" fill="white"/>
<path d="M240.797 24.2278C236.922 24.0328 233.052 24.6913 229.463 26.1563C225.874 27.6212 222.654 29.8564 220.033 32.7024C214.822 38.7461 212.11 46.532 212.446 54.4877C212.167 62.4569 214.954 70.232 220.238 76.2278C222.813 79.0523 225.976 81.284 229.507 82.7671C233.039 84.2503 236.852 84.9493 240.683 84.8154C248.255 84.8154 254.23 82.9397 258.607 79.1883C262.642 75.8205 265.36 71.1492 266.285 65.9905H256.062C254.941 68.8412 252.884 71.2307 250.224 72.7702C247.298 74.4441 243.967 75.2882 240.592 75.2109C236.417 75.1669 232.424 73.5049 229.461 70.5781C226.167 67.3218 224.297 62.9039 224.259 58.2843H267.625C267.784 56.9647 267.853 55.6358 267.83 54.3069C267.83 45.2674 265.399 37.983 260.538 32.4538C258.058 29.7225 255.003 27.5692 251.591 26.1473C248.178 24.7254 244.493 24.07 240.797 24.2278ZM224.509 49.4256C224.945 45.201 226.756 41.2336 229.665 38.1261C231.117 36.7337 232.838 35.6507 234.725 34.9435C236.612 34.2363 238.624 33.9197 240.638 34.0131C242.62 33.9172 244.6 34.2356 246.451 34.948C248.302 35.6603 249.982 36.7506 251.383 38.1487C254.214 41.2749 255.917 45.2511 256.221 49.4482L224.509 49.4256Z" fill="white"/>
<path d="M303.612 34.3283C307.369 34.2531 311.042 35.4393 314.039 37.6955C315.403 38.6586 316.561 39.8817 317.447 41.2939C318.332 42.706 318.926 44.279 319.195 45.9215H330.304C329.615 40.0187 326.769 34.5737 322.308 30.6221C317.658 26.2831 311.101 24.1136 302.635 24.1136C298.821 23.978 295.022 24.6583 291.495 26.1086C287.968 27.5589 284.794 29.7454 282.19 32.5204C276.839 38.4753 274.007 46.2557 274.284 54.2379C273.957 62.315 276.772 70.2069 282.144 76.2718C284.717 79.1004 287.88 81.3363 291.411 82.8234C294.942 84.3106 298.757 85.0131 302.589 84.882C306.602 84.9488 310.592 84.2745 314.357 82.8933C317.524 81.7767 320.392 79.9521 322.739 77.5599C324.748 75.4494 326.425 73.0495 327.714 70.4413C328.912 67.9446 329.739 65.2878 330.168 62.5543H319.15C318.31 65.87 316.394 68.8173 313.698 70.9385C310.369 73.4963 306.19 74.706 302.001 74.3245C297.813 73.943 293.924 71.9986 291.117 68.882C287.899 64.6941 286.288 59.5016 286.574 54.2379C286.304 49.0109 287.914 43.8591 291.117 39.7068C292.649 37.906 294.577 36.4801 296.751 35.5395C298.926 34.599 301.289 34.1691 303.657 34.2831" fill="white"/>
<path d="M379.915 84.2938H395.998L368.284 46.7797L391.432 24.113H375.349L352.291 46.9605V0H339.683V84.2938H352.291V62.4407L359.583 55.2768L379.915 84.2938Z" fill="white"/>
</g>
<defs>
<clipPath id="clip0_1292_3668">
<rect width="396" height="88" fill="white"/>
</clipPath>
</defs>
</svg>
