<svg width="102" height="103" viewBox="0 0 102 103" fill="none" xmlns="http://www.w3.org/2000/svg">
<path d="M101.292 102.57C101.433 102.533 101.611 102.295 101.426 102.191L100.972 102.437L101.292 102.57Z" fill="#202020"/>
<path d="M100.95 100.936C100.608 100.928 100.117 101.033 99.9019 101.456C100.407 101.293 100.311 101.471 100.89 101.263C101.076 101.367 101.032 101.627 100.883 101.731C101.024 101.694 101.032 102.036 101.329 101.895C101.411 101.434 101.18 101.181 100.704 101.151C100.734 101.033 100.875 100.988 100.95 100.936Z" fill="#202020"/>
<path d="M87.23 86.0781L87.2817 86.2111C87.2743 86.1594 87.2595 86.1151 87.23 86.0781Z" fill="#202020"/>
<path d="M78.5789 77.0105C78.6528 77.0697 78.7193 77.0623 78.7488 77.0327C78.6675 76.9958 78.5936 76.9662 78.5789 77.0105Z" fill="#202020"/>
<path d="M77.4568 75.1159C77.479 75.1603 77.5011 75.1898 77.5233 75.2268C77.5159 75.1603 77.5011 75.1085 77.4568 75.1159Z" fill="#202020"/>
<path d="M87.2296 86.0773L87.1035 85.7285C86.9699 85.825 87.1406 85.9363 87.2296 86.0773Z" fill="#202020"/>
<path d="M98.1477 99.7985C98.2146 99.8282 98.289 99.8431 98.3707 99.8357C98.3187 99.8134 98.2666 99.7836 98.2146 99.7539C98.1849 99.7688 98.17 99.7836 98.1477 99.7985Z" fill="#202020"/>
<path d="M91.407 89.7047L91.4812 89.7789C91.5405 89.764 91.6073 89.7344 91.6815 89.6973L91.407 89.7047Z" fill="#202020"/>
<path d="M94.454 92.6556C94.402 92.5739 94.0824 92.8488 93.9263 92.9455C94.0898 92.8637 94.1939 92.8563 94.2757 92.8934C94.3277 92.8414 94.3871 92.7597 94.454 92.6556Z" fill="#202020"/>
<path d="M98.6755 97.9316L98.8012 97.976C98.7642 97.9686 98.7125 97.939 98.6755 97.9316Z" fill="#202020"/>
<path d="M89.3333 87.4963C89.3702 87.4446 89.3998 87.4002 89.4145 87.3633C89.3702 87.4002 89.348 87.4446 89.3333 87.4963Z" fill="#202020"/>
<path d="M3.46944 5.75119C3.49161 5.73641 3.50639 5.71424 3.52117 5.69946C3.46944 5.70685 3.44727 5.72163 3.46944 5.75119Z" fill="#202020"/>
<path d="M1.46289 0.809939L1.52975 0.839668C1.58921 0.787643 1.64871 0.743051 1.70816 0.683594L1.46289 0.809939Z" fill="#202020"/>
<path d="M75.071 71.9648C75.071 71.9722 75.0784 71.9722 75.0784 71.9796C75.1893 72.024 75.1376 71.987 75.071 71.9648Z" fill="#202020"/>
<path d="M49.4969 46.7324C49.5192 47.2824 48.6868 46.5986 48.828 47.327C48.9097 47.1709 49.6827 47.2601 49.4969 46.7324Z" fill="#202020"/>
<path d="M98.1024 99.6866C98.0581 99.6496 98.0138 99.6127 97.9768 99.5684C98.0285 99.6275 98.0655 99.6644 98.1024 99.6866Z" fill="#202020"/>
<path d="M48.8279 47.3262L48.8427 47.4001C48.8427 47.3705 48.8353 47.3483 48.8279 47.3262Z" fill="#202020"/>
<path d="M68.5307 65.752C68.4936 65.8188 68.4787 65.8783 68.4639 65.9452C68.4936 65.9155 68.5159 65.8634 68.5307 65.752Z" fill="#202020"/>
<path d="M72.8483 70.9306L72.7744 70.7754C72.7966 70.8493 72.8187 70.8936 72.8483 70.9306Z" fill="#202020"/>
<path d="M65.6544 63.6991C65.6098 63.6099 65.6321 63.5505 65.5057 63.5059C65.4983 63.5282 65.4983 63.5505 65.4983 63.5653C65.5652 63.5579 65.6247 63.5802 65.6544 63.6991Z" fill="#202020"/>
<path d="M63.0902 61.1289C63.0828 61.1659 63.0828 61.2028 63.0754 61.2324C63.105 61.2545 63.1419 61.2767 63.1715 61.2989L63.0902 61.1289Z" fill="#202020"/>
<path d="M11.3919 13.421C11.4216 13.28 11.4735 13.1539 11.5403 13.0352C11.3696 13.2874 10.9244 12.9832 11.3919 13.421Z" fill="#202020"/>
<path d="M98.3113 99.6348C98.2221 99.6942 98.1626 99.7091 98.1106 99.6868C98.1403 99.7165 98.1775 99.7388 98.2147 99.7537C98.2592 99.7165 98.3038 99.6794 98.3113 99.6348Z" fill="#202020"/>
<path d="M63.2166 65.9221L62.8525 65.4688C62.9342 65.61 63.068 65.7735 63.2166 65.9221Z" fill="#202020"/>
<path d="M29.8158 31.8306L29.6902 31.7715C29.7197 31.8158 29.7567 31.8454 29.8158 31.8306Z" fill="#202020"/>
<path d="M61.5964 64.3019C61.6262 64.1235 61.6113 63.9898 61.5741 63.8708C61.537 63.8783 61.4924 63.8783 61.4478 63.9006L61.5964 64.3019Z" fill="#202020"/>
<path d="M8.15916 11.043C8.5382 11.4444 8.72399 10.8498 9.02871 10.7086C9.60099 11.0653 8.95437 11.2065 8.91721 11.5633C9.31112 11.7491 9.89084 11.6153 10.0915 11.8457C10.0469 11.9274 10.0618 11.9943 9.93546 12.0241C10.5523 12.0241 10.857 12.9159 11.6003 12.8936C11.5928 12.9531 11.5705 12.9977 11.5482 13.0348C11.682 12.7821 11.8753 12.574 12.0239 12.4477C12.2023 12.6186 12.5887 12.5294 12.4029 12.849C12.3063 12.7375 12.1948 12.8267 12.061 12.8565L12.3509 12.9308C12.1502 13.4585 11.9793 12.8044 11.7043 13.0794C12.1799 13.3173 12.8934 13.4287 13.0644 13.8078C12.7671 14.224 12.3063 13.2875 12.3509 13.9713L12.0685 13.4139C11.8232 14.2983 11.8529 13.1166 11.5408 14.0159C11.9941 14.6773 12.3435 14.4544 12.7894 15.1158C13.109 15.0415 13.0421 14.7814 13.3691 14.7071C14.5137 15.1381 13.0867 16.2232 14.142 16.3273C14.5285 16.2381 15.0413 15.8442 15.2123 16.4982L14.6697 16.7584C15.1677 17.3381 15.5541 16.4834 15.844 17.3232C15.5839 17.3827 15.2866 17.0333 15.3238 17.1597C15.3684 17.8434 15.8143 17.1894 16.0893 17.4718L15.792 17.888C16.4163 18.4083 17.3082 18.7799 18.0068 19.3522C17.8656 19.4265 17.6426 19.4265 17.6798 19.6866C18.6534 20.3109 19.3371 21.4406 19.8945 22.4217L20.4965 22.4068C20.5634 22.4811 20.4817 22.6744 20.3479 22.6595C20.5337 23.0757 20.556 22.4811 20.8236 22.5034C21.0168 22.6521 20.8681 22.9047 20.6675 22.8899C21.4553 23.1574 22.7411 23.8412 22.964 24.7331L22.7633 24.7182C23.0755 25.2756 23.8856 24.577 24.0045 25.2682L23.8708 25.2459C24.6809 26.3235 26.0038 27.0891 26.2565 28.2782C26.8362 27.9735 26.9923 29.4153 27.676 28.8579C27.9064 29.7052 27.6388 29.6606 28.1962 30.6268C28.3672 30.8572 28.8875 30.545 29.1996 30.7308L28.88 31.0578H29.5638L29.3557 31.6227L29.6753 31.7788C29.601 31.6673 29.6232 31.4369 29.7273 31.3551C30.2401 31.5781 30.3962 32.4774 30.2401 32.6557L31.3847 33.2503C31.236 33.3618 31.0428 33.2578 30.8495 33.228C31.6448 33.3618 30.5894 33.6517 31.3178 33.778C31.3326 33.6442 31.5407 33.6145 31.6151 33.5625C31.6299 33.9712 32.113 34.4543 32.5515 34.7293L32.2617 34.8854C32.8488 35.5914 33.7258 36.1414 34.4467 36.8698C34.2906 36.5056 34.7366 36.1786 34.9893 36.357L34.7291 36.7806C35.0785 36.7063 34.6399 36.4313 35.1751 36.4536C35.4055 36.7657 34.9669 37.0259 34.6994 36.9813L35.1453 37.1894C35.0636 37.3083 34.9298 37.286 34.7812 37.3975C35.1305 37.3231 35.0041 38.3116 35.569 38.1333L35.4872 38.2522C36.2081 38.9805 36.654 39.1886 37.2561 39.7609C37.5608 39.4785 37.7243 39.7758 38.1405 39.7089C38.4749 40.2366 38.7276 40.95 39.2702 41.448C39.783 41.671 39.6269 41.3068 39.9688 41.2919C39.7235 41.5892 40.2735 42.0872 39.8053 42.0054C40.4742 42.5925 40.66 42.7561 41.6633 43.3283C41.6856 43.1351 41.641 42.9865 41.7823 42.9493C41.9681 43.0459 41.9978 43.3878 41.8417 43.4993L41.7748 43.4918C43.068 43.9824 43.0383 46.3309 44.3018 46.4796L44.2349 46.4647L45.2605 46.9106C45.5504 47.2971 44.8592 46.9106 44.9409 47.3268C46.1821 47.6687 46.1226 48.6423 47.074 48.9991C46.7841 50.2997 48.9171 50.7382 49.0881 51.9273L49.2367 51.7044C49.5934 51.6969 49.3408 52.024 49.4299 52.1949C49.5563 52.0314 49.4076 51.8382 49.6157 51.8456C51.3326 53.1165 52.4177 55.2049 53.7703 56.9069C54.2757 57.5163 55.0561 56.2603 55.3162 57.4123L54.7662 57.5609C56.3121 58.2744 57.0554 59.8872 58.5121 60.6453C58.3634 60.6601 58.2593 60.7642 58.1553 60.6527C58.133 61.1358 59.0026 61.5297 59.2181 61.329C59.3668 61.5223 59.0695 61.552 59.0695 61.7675C59.1512 62.154 59.9762 62.0351 59.8498 62.4067C59.8275 62.4662 59.7012 62.4216 59.6417 62.3993C59.9167 62.429 60.3181 63.1425 60.4667 62.704C60.7417 63.2614 61.3883 63.3729 61.5444 63.8708C62.0869 63.7593 62.0943 64.7404 62.622 64.3465C62.1166 64.7924 62.9639 65.4613 63.447 65.4985C63.2166 65.5505 63.5288 65.8775 63.224 65.9741C63.5288 66.264 63.893 66.4572 64.0862 66.1599C64.0639 67.2822 65.6544 66.814 65.2307 67.8545C66.3753 68.4936 67.3712 69.1402 68.2779 69.8314C67.7726 70.2774 67.3489 68.9916 66.8807 69.5267C67.832 70.0915 68.6792 70.1213 69.311 70.9908C69.4373 71.251 68.9914 71.0875 68.8502 71.1023C69.8015 71.6672 70.2698 72.6111 71.1988 73.0347C71.1542 73.0793 71.0353 73.0496 70.9238 73.0198C71.0724 73.1387 71.1616 73.3989 71.3623 73.1685L71.1765 73.0941C71.2805 72.5665 72.3582 72.9678 72.544 72.8266C71.6967 73.2205 73.0568 73.6516 71.9122 74.0678C72.0386 74.1123 72.2541 74.1198 72.373 73.9563C72.4622 74.1272 72.4176 74.2536 72.1204 74.2833C72.7149 74.64 72.7744 74.2461 73.198 74.6846C73.094 74.7887 72.9676 74.7367 72.7967 74.8184C73.2203 74.8333 73.6439 74.8481 73.9189 75.3015C73.8372 75.3387 73.7926 75.465 73.6885 75.3535C74.3426 75.9481 75.2939 75.8812 75.7844 76.7656C75.1304 77.0183 75.8662 77.1521 75.5094 77.5757L75.9925 77.8284L76.0371 77.4865C76.3567 77.821 76.9215 77.821 77.0776 78.2223L76.6763 78.1406L77.3526 78.6757L77.1593 78.1852C77.687 78.3115 77.6202 77.6575 77.9398 78.1926C77.8134 78.148 78.2593 78.5196 78.1924 78.921C78.4748 78.9581 78.7721 78.9878 78.9134 79.3297C78.8465 79.5155 78.4303 79.7162 78.3857 79.8351C78.8688 79.6642 79.2329 80.504 79.7829 80.3554C79.6343 80.3702 79.4262 80.5709 79.4039 80.6378L79.8052 80.504C79.8721 80.7418 79.8498 80.8013 79.664 80.9425C80.0653 81.4405 80.0207 80.3033 80.3403 81.054C80.2734 81.0317 80.2585 81.0911 80.1322 81.0466C80.5558 81.6932 81.3362 81.9161 81.7004 82.5404C81.4477 83.083 81.1727 82.206 81.0092 82.7039C81.7896 83.3431 82.9565 83.7073 83.551 84.4951L83.4692 84.3241C84.1233 83.8633 83.7071 85.112 84.3165 85.2011C84.1902 85.1565 83.8929 85.3944 83.9821 85.3572C84.3611 85.9221 85.0821 86.1896 85.9739 86.7247L85.7435 86.7768C85.8922 87.1855 86.3975 87.5869 86.6353 87.951C86.8657 87.899 87.0144 88.0923 87.1185 87.7801C87.2225 89.5192 89.3184 89.1105 89.4596 90.6118C89.363 90.5151 89.1029 90.5003 89.1772 90.582L90.0096 91.1543C90.1954 90.857 90.069 90.9165 90.1062 90.582C90.3366 90.53 90.6487 90.6117 90.8197 90.7901C90.344 90.634 90.4332 91.184 90.4332 91.4516C90.4852 91.355 90.6115 91.3178 90.6784 91.2286C90.6115 92.0239 91.2284 90.805 91.4365 91.5928L91.2804 91.6968C91.5331 91.8158 91.875 91.8232 92.0385 92.061C91.8379 92.4252 91.7115 91.9941 91.4662 92.2097C91.7635 92.4772 92.5588 92.2394 92.529 92.7745C92.3284 92.7299 92.1575 92.559 91.9568 92.5144C91.9048 93.1238 92.0237 93.0718 92.1723 93.3319L92.1574 93.3022L92.4845 93.9339L92.4547 93.7258C93.5398 93.3468 93.3094 94.313 94.2682 94.313C93.354 94.2981 93.9263 94.4988 93.577 94.7812C93.6067 94.9893 93.6959 95.2791 93.5547 95.3089C94.0378 95.2791 93.7257 95.8886 94.4243 95.8291C94.3351 95.948 94.6546 96.0818 94.3499 96.2899C94.7215 96.5055 94.4614 96.0447 94.6101 95.9406C95.4128 96.0447 95.2418 97.427 96.3715 97.598C97.1296 97.9622 97.5755 97.7243 98.2667 98.0736C98.2741 98.4155 97.7464 98.304 97.7464 98.304C97.8802 98.7351 98.118 98.9209 98.5045 99.077C98.3633 99.1141 98.341 99.2405 98.3038 99.4412C98.5417 99.627 98.8241 99.2108 98.9504 99.6493C98.7869 99.7161 98.5417 99.8351 98.3262 99.8425C98.6755 99.9986 99.1139 100.058 99.4633 100.229C99.3518 100.474 99.0322 100.34 98.8241 100.363C99.1957 100.578 99.7457 100.965 100.117 100.772L100.028 100.482C100.147 100.578 99.8423 100.779 99.7085 100.749C99.2329 100.719 99.441 100.288 99.5302 100.17L99.7828 100.288C100.192 99.5006 98.943 99.6344 98.6012 99.2256L99.1957 98.9432L98.4451 98.9209C98.4748 98.7277 98.668 98.4229 98.9133 98.5493C98.8613 98.0662 98.5194 98.4675 98.5342 97.9919C98.5491 97.9324 98.5788 97.9176 98.6234 97.925L98.2295 97.7912C98.3708 97.7541 98.4971 97.4419 98.5937 97.6649C98.3782 96.9439 97.5086 97.2338 97.6647 96.721L97.7316 96.7358C96.9289 96.2305 97.3451 96.996 96.483 96.8771L96.9437 95.7548L96.5573 96.0075C96.5053 95.9257 96.3938 95.7697 96.5424 95.6656C96.0742 95.6359 96.4458 95.8514 96.0891 95.9109C96.0593 95.294 95.056 95.1528 95.5019 94.5657C95.1377 94.692 95.6208 95.0636 95.108 94.8852C95.5614 94.2386 94.6175 94.5805 94.5729 94.0305C94.9445 93.8373 95.0783 94.2684 95.0337 93.7184C94.3723 94.0157 94.5655 93.0346 94.2236 92.8786C93.8297 93.2502 93.525 92.4921 92.975 92.2022C93.1311 92.0982 92.3953 91.1989 92.1426 90.6712L92.2169 90.6192C91.7561 90.9313 91.4291 90.4557 91.05 90.2402C91.2953 90.0172 91.4365 89.98 91.6966 90.0395L91.4217 89.7645C91.2359 89.8239 91.0798 89.8016 90.8568 89.6679L91.2136 89.4523C90.8345 89.103 90.1359 89.051 89.8609 88.3895C89.5636 88.6348 89.4819 89.5118 88.8056 89.1922C88.9319 89.0287 89.1623 88.7611 89.3555 88.8355C89.2961 88.8132 89.0805 88.8057 89.0582 88.6571L89.5042 88.6125C89.4001 88.2929 89.1846 88.7017 89.036 88.5085C89.2441 88.3078 89.0582 88.2335 89.244 88.0923C89.3109 88.1145 89.311 88.3301 89.4522 88.3152C89.2961 88.0848 89.1846 87.7281 89.2664 87.4902C89.1623 87.624 88.9839 87.7727 88.8204 87.6537C88.4414 87.3044 88.9468 87.2822 88.8353 86.9551C88.6049 87.0072 88.5157 86.6281 88.2036 86.9328C88.0995 86.8214 88.2258 86.6578 88.263 86.5315C87.936 86.4795 87.3414 85.6842 87.2225 86.2268L87.2522 86.2937C87.2374 86.2937 87.2225 86.2788 87.2076 86.2788C86.2786 85.9667 86.0928 84.8072 85.3422 84.3241L85.4462 84.2201C84.9631 83.9674 84.5544 83.4694 84.0713 83.4249C83.9598 83.3134 84.0044 82.9789 84.1753 82.9046C83.8186 82.7039 83.6699 82.7857 83.4321 82.206C83.8929 82.31 83.499 81.9458 83.8557 82.3621C83.5807 81.9087 83.6625 81.656 82.9862 81.5445C83.3875 81.4107 83.0456 80.9351 82.7929 80.8385L82.8598 81.2844C82.6294 81.1283 82.4808 80.9351 82.3247 80.7344L82.7707 80.4817C82.4511 79.3074 80.6971 79.85 80.8383 78.5717C80.3923 78.6162 81.0687 79.1514 80.6079 79.2554C80.3106 78.8615 80.4592 77.9994 80.3478 77.8953C80.0728 77.2264 79.3964 77.9622 79.0397 77.3379C78.9802 77.5237 78.7053 77.9176 78.2147 77.6649C77.9174 77.271 78.3188 76.721 78.6309 76.84C78.7276 76.9143 78.7276 76.9886 78.6755 77.0332C78.8316 77.1001 79.0323 77.1893 79.0323 76.9217L78.8613 77.0035C78.8167 76.7062 78.3336 76.2454 78.6458 76.1488C78.2667 76.0076 78.3262 76.2379 78.46 76.4981C78.1998 75.8738 77.7762 75.7995 77.4418 75.2272C77.4418 75.3684 77.3674 75.5839 77.2931 75.5096C76.7803 74.6846 76.7655 75.4501 76.2601 75.0562C76.1932 74.6103 76.81 74.6921 76.1932 74.3948C76.0445 73.986 76.4682 74.0083 76.6763 74.0157C76.0222 73.8374 76.0594 73.0793 75.8661 72.7969L76.1857 72.9158C75.9925 72.8415 75.8885 72.7374 75.7844 72.6259L75.6581 72.9975C75.5763 72.8266 75.4648 72.7151 75.5689 72.6111C75.2716 72.6408 75.2567 73.1239 74.7662 73.0867C74.7216 72.7894 74.1122 72.7002 74.3797 72.3138C74.8033 72.9678 74.6547 71.9199 75.1601 72.3286C75.0337 72.2766 74.9297 72.1726 74.8405 72.0016C74.8554 71.9422 74.9297 71.9496 74.9817 71.9645C74.7662 71.1544 74.3723 72.0982 73.8446 71.5557C74.0973 71.4368 74.075 71.08 73.9486 71.028C74.1567 71.2435 73.7405 71.4442 73.3987 71.3847C73.2054 70.8942 72.923 71.1172 72.7595 70.924L72.8933 71.1989C72.6406 71.3179 72.4919 71.1172 72.1947 70.9388C72.321 70.7753 72.5143 71.0577 72.492 70.9091C71.8974 70.9685 72.2318 69.9726 71.6447 69.824C71.6001 69.5267 71.9791 69.4598 71.9122 69.222C71.2582 69.051 71.719 68.5159 71.0873 68.2781C70.9609 68.6571 71.0427 68.6125 70.4927 68.5531L71.3846 69.0956L70.5596 68.999C70.7677 69.222 71.169 69.2963 71.2582 69.4673C70.8346 69.4524 70.9163 69.4152 70.8123 69.7274C70.894 69.0585 70.0096 69.3632 69.9204 68.7612L70.5522 68.1518C70.3143 67.3639 69.3259 67.5572 68.813 66.7322L68.9171 67.0518C68.5826 67.2079 68.4711 66.6728 68.159 66.5613C68.3894 66.3755 68.33 66.1674 68.3671 65.9444C68.2259 66.1079 67.8914 65.439 67.4158 65.7958L67.3935 65.2235C66.9699 64.5695 66.1895 65.2012 65.7435 64.6066C66.1226 64.5397 66.0408 64.1533 66.5462 64.3391C66.3753 64.1607 66.2564 63.9674 66.1152 64.1087C66.1449 63.8783 65.3571 63.908 65.3943 63.5512C65.2308 63.5661 64.9855 63.7593 64.8145 63.5512C64.8368 63.4918 64.9186 63.4472 64.9186 63.4472C64.8145 63.5512 64.4727 63.2837 64.4132 63.685C64.5321 62.5033 62.8822 62.2432 62.9788 61.225C62.5329 60.9203 62.0126 60.5264 61.6559 60.1993C61.7376 60.1622 61.7599 60.0953 61.8045 60.1845C61.5295 59.5156 60.9201 60.4892 60.6005 59.7385C60.66 59.1291 61.0687 59.8426 61.0241 59.5453C61.6336 58.7872 60.2809 58.9879 60.3255 58.2298L60.4518 58.2744C60.4073 57.769 59.5228 57.8582 59.1215 57.3603C59.1215 57.3603 59.2032 57.3231 59.2255 57.2636C58.5715 57.3008 57.8729 56.8326 57.3378 56.4907C57.7391 56.3569 57.6797 56.5502 57.8655 56.1934C57.6351 56.0373 57.4864 56.6839 57.0182 56.3718C57.0405 56.0968 56.8844 55.688 57.1371 55.361L57.5161 55.7103C57.7019 55.1455 57.033 55.2495 56.8993 54.9894L57.0851 54.8482C56.4682 54.3354 56.052 54.7441 55.4797 54.1124L55.4203 54.2982C54.6845 54.3725 55.3757 53.7928 54.744 53.7631L55.0635 53.2503C54.7439 53.1314 53.9041 52.8861 53.4359 52.5739C53.9636 52.4848 54.5804 52.7895 55.0412 52.8861C54.8257 52.6706 54.2757 52.18 53.9636 52.2767C54.0899 52.3213 54.298 52.3287 54.3203 52.4848C53.7257 52.5442 53.2204 52.3584 52.7967 51.9199C53.6812 51.1916 51.8826 50.597 52.1947 49.6605C51.1394 49.1923 50.8198 48.0255 49.8833 47.1856C49.5712 48.1221 49.6083 46.9478 49.0212 47.639C48.7759 47.4755 48.709 47.3863 48.7313 47.3268L48.4935 46.3161C48.5306 45.9816 48.828 46.3681 48.9543 46.212C48.553 45.7066 49.036 45.7512 48.9097 45.283C48.7387 45.5728 48.4266 45.4539 48.2557 45.1121L48.3226 45.7735C47.3489 45.4837 48.3151 44.6884 47.3415 44.3911H47.7429C47.2969 44.183 46.5463 43.1797 45.7064 43.3729C45.7213 43.2392 45.8254 42.9865 46.0112 43.0831C45.3125 42.2209 43.7295 41.8939 43.4396 40.9649L43.6552 40.8683C43.4619 40.7642 43.1052 40.9054 43.0829 40.571C43.1572 40.519 43.2984 40.4744 43.239 40.4001C43.1052 40.3778 42.5775 40.2886 42.4734 40.0062L42.8153 39.9913C42.2654 39.0251 41.2174 39.2481 40.4742 38.7204C40.9424 38.2596 40.4891 37.509 40.2661 37.1373L40.3404 37.0853C39.5154 36.1414 38.4526 35.9556 37.4493 35.3165C37.4419 34.3057 35.9406 33.3767 35.4055 32.2767C35.45 32.4848 35.0264 32.6186 34.8332 32.5145C34.7366 32.2247 33.9785 32.299 34.4393 31.9125L34.4987 31.9869C34.7737 31.4294 34.2683 31.1396 33.9711 30.82L33.3616 31.3254C33.369 29.7126 30.9536 29.5045 31.2435 28.3377C30.909 28.2782 30.6712 28.0404 30.3367 27.9809L30.6489 27.6911C30.1881 27.0742 29.9577 26.7695 29.2219 26.1675L29.5712 26.0931C29.2145 25.6992 28.2408 26.4722 27.8767 26.1452L28.2186 25.5952C27.5571 24.9412 27.2821 23.8932 26.2342 23.6405C26.3085 23.5885 26.4571 23.477 26.5835 23.5662C26.2862 23.2466 25.6916 22.0723 25.1937 22.7933C25.5801 22.3919 24.5545 22.0798 24.0268 21.894L24.3761 21.6561C23.6998 21.7305 23.5883 21.8197 23.0681 21.5075C23.0086 21.3737 23.2167 21.1879 23.2762 21.396C23.0978 20.9129 22.741 21.4183 22.4958 20.8609L22.8302 20.8237C22.5107 20.4596 22.4438 20.5859 22.035 20.6156C21.708 20.519 21.4702 19.8947 21.6857 19.5826C21.4776 19.7015 21.0762 19.7238 20.9499 19.4488C21.0242 19.3224 21.158 19.3299 21.2249 19.3373C20.8607 18.5718 20.0432 18.8319 19.9391 18.1556C20.0283 18.0515 20.0506 17.9772 20.0506 17.9178C20.4966 18.3786 20.8384 18.7576 20.7864 18.7427C21.054 18.4752 20.7418 18.059 21.4033 17.9772C20.9053 17.888 19.9688 17.8286 19.7384 17.3455C19.7459 17.3009 19.7533 17.2563 19.7831 17.2043L19.8499 17.2117C19.7979 17.1002 19.6939 17.0556 19.5824 17.0333C19.5155 16.8773 19.4783 16.7732 19.3668 16.6543C19.5452 16.3867 19.0696 16.1192 18.8986 15.9259C18.6162 16.2381 18.4304 15.9482 18.4081 16.4165C18.4007 16.3644 18.475 16.4165 18.6088 16.528C18.6459 16.5503 18.6831 16.5725 18.7202 16.5725C18.7054 16.58 18.6979 16.58 18.6831 16.5874C18.8094 16.6989 18.9729 16.8475 19.1513 17.0185C18.8615 17.0259 18.579 17.0036 18.5493 16.632C18.2669 16.7286 17.9696 16.8178 17.821 16.855C17.9845 16.1935 17.7318 15.4949 17.9176 15.1753C17.1967 14.7888 16.5055 13.9787 15.5988 14.1794C15.3684 14.0902 15.5764 13.8375 15.6062 13.6963C15.7548 13.7335 15.8514 13.8524 15.9778 13.8152C15.517 13.6443 14.9893 12.9382 14.5285 13.2504C14.3056 12.6781 15.1082 13.1166 14.4988 12.6335L14.692 12.5889C14.2387 10.8944 11.957 11.8308 11.5705 9.83901C11.6002 9.97279 11.6225 10.0322 11.5779 10.114C10.5746 8.4046 8.45643 7.63909 7.67605 5.74389C7.4085 5.25336 7.11864 5.45403 6.695 5.40943L6.93284 5.0081L6.16735 4.97837C5.33495 4.68109 5.97409 3.22438 4.75522 3.01628L4.63632 3.321C4.42079 3.02371 3.69988 2.63724 3.98973 2.42914C3.92284 2.44401 3.68499 2.57035 3.69243 2.35482L3.84852 2.18388L2.93433 1.83457C2.57015 1.22513 3.67013 1.25486 2.9938 0.504208C2.66679 0.30354 1.76007 0.229217 1.7452 0.44475C1.84182 0.556232 1.91615 0.823794 1.75264 0.994734L1.42562 0.838659C0.890509 1.28459 0.206752 1.59674 0.452013 2.53319L1.16547 2.6521L1.06146 3.02371L0.697242 2.68927C0.667513 3.1129 0.994543 3.03857 1.26953 3.04601C1.17291 3.20208 1.14319 3.35073 1.18035 3.47707L2.05734 3.41761C1.91613 3.65544 1.49252 3.61085 1.66346 3.98989C2.07223 3.9676 1.90868 3.38045 2.36948 3.55139C2.34718 3.97503 2.10194 4.09394 2.52557 4.13854C2.42895 4.29461 2.30261 4.32434 2.15396 4.28718C2.51071 4.34664 2.7634 4.77027 3.13501 4.62163C3.06812 5.10472 3.90053 5.25336 3.41744 5.69186C3.59581 5.64727 4.1458 5.69186 4.3539 5.8628C3.45461 6.0709 5.03022 6.60601 4.34646 7.1114C5.10454 6.87357 5.49099 7.81746 6.22677 8.00326C6.15988 8.01813 6.03356 8.04786 6.0187 7.98097C6.23423 8.27825 6.15988 8.50122 6.22677 8.76134C6.6727 8.3823 7.16324 8.68702 7.63146 8.64986C7.54971 9.36335 6.95515 8.93971 6.67273 9.4228C6.99231 9.07349 7.54971 9.63834 7.72064 9.25187C7.71321 9.73496 7.80984 9.57888 7.58687 10.0397C8.14428 9.57145 7.89901 10.1735 8.41183 10.062C8.50102 10.664 8.01793 10.6342 8.55304 10.8572C8.67939 11.2065 8.15916 11.043 8.15916 11.043ZM18.1108 19.2481C18.1108 19.2556 18.1108 19.2556 18.1108 19.2481C18.0217 19.1812 17.9473 19.1218 17.9027 19.0846C17.9473 19.1218 18.0068 19.1664 18.1108 19.2481ZM18.8763 20.0136C18.7946 19.9096 18.6831 19.7907 18.5568 19.6718C18.6311 19.5454 18.7649 19.4637 18.8392 19.5528C18.7277 19.5677 18.854 19.813 18.8763 20.0136ZM19.3222 16.3496C19.4857 16.4313 19.4635 16.528 19.4263 16.6023C19.3668 16.5503 19.2851 16.4908 19.181 16.4239C19.1662 16.4313 19.1439 16.4388 19.129 16.4462C19.1885 16.409 19.2554 16.3644 19.3222 16.3496Z" fill="#202020"/>
<path d="M18.7124 16.5198C18.6902 16.5124 18.668 16.5124 18.6384 16.4902C18.6384 16.542 18.6384 16.5863 18.6458 16.6306C18.6902 16.6159 18.7345 16.6011 18.7788 16.5789C18.7567 16.5567 18.7345 16.5346 18.7124 16.5198Z" fill="#202020"/>
<path d="M87.2894 86.2351L87.282 86.2129C87.282 86.2351 87.282 86.2646 87.2747 86.2868C87.2747 86.2646 87.282 86.2498 87.2894 86.2351Z" fill="#202020"/>
<path d="M28.8277 31.1247L28.8942 31.0508H28.7686L28.8277 31.1247Z" fill="#202020"/>
<path d="M90.4629 91.4512C90.4481 91.4881 90.4333 91.5251 90.4407 91.5842C90.4629 91.562 90.4629 91.5103 90.4629 91.4512Z" fill="#202020"/>
<path d="M92.2095 93.3398L92.3579 93.7034C92.3134 93.5328 92.2614 93.4215 92.2095 93.3398Z" fill="#202020"/>
<path d="M93.4581 94.8847C93.5246 94.8478 93.569 94.8182 93.6133 94.7886C93.6133 94.7886 93.6133 94.7886 93.6133 94.7812L93.4581 94.8847Z" fill="#202020"/>
<path d="M70.9674 73.0053C70.9452 72.9905 70.923 72.9757 70.9009 72.9684C70.7161 72.8945 70.827 72.9536 70.9674 73.0053Z" fill="#202020"/>
<path d="M78.244 78.9277C78.1179 78.9129 77.9991 78.898 77.8953 78.8535C77.9917 78.9945 78.0734 79.091 78.244 78.9277Z" fill="#202020"/>
<path d="M63.2535 65.9736C63.2535 65.9662 63.2535 65.9662 63.2535 65.9736C63.2461 65.9514 63.2313 65.9367 63.2166 65.9219L63.2535 65.9736Z" fill="#202020"/>
<path d="M77.5979 78.541C77.6573 78.7191 77.7685 78.8007 77.9021 78.8527C77.8205 78.7339 77.7389 78.593 77.5979 78.541Z" fill="#202020"/>
<path d="M99.3593 101.076L99.411 101.157C99.4258 101.135 99.4479 101.128 99.4627 101.121L99.3593 101.076Z" fill="#202020"/>
<path d="M99.4708 101.113L99.5816 101.15C99.5447 101.121 99.5151 101.091 99.4708 101.113Z" fill="#202020"/>
<path d="M99.8127 101.24L99.5823 101.158C99.6343 101.21 99.6863 101.284 99.8127 101.24Z" fill="#202020"/>
<path d="M97.6491 99.0918L97.5235 99.1805C97.5604 99.1657 97.5974 99.1361 97.6491 99.0918Z" fill="#202020"/>
<path d="M97.0627 98.5573C97.1742 98.7134 97.1668 99.1221 97.4195 99.2411L97.5235 99.1742C97.2783 99.2485 97.3675 98.5053 97.0627 98.5573Z" fill="#202020"/>
<path d="M96.052 94.8844L96.4384 95.4418C96.4682 95.2485 96.5202 94.981 96.758 95.1742C96.4979 94.2378 96.6168 95.5533 96.052 94.8844Z" fill="#202020"/>
<path d="M94.7588 93.2566C95.063 93.457 94.922 93.086 94.9962 93.034C94.7365 92.9821 94.6697 92.9747 94.7588 93.2566Z" fill="#202020"/>
<path d="M84.2422 82.7032L84.539 82.4584C84.3015 82.3025 84.4277 82.5622 84.2422 82.7032Z" fill="#202020"/>
<path d="M80.8383 82.0723L80.8606 82.4284L81.1945 82.2726L80.8383 82.0723Z" fill="#202020"/>
<path d="M81.5667 78.9655L81.693 79.0101L81.2694 78.7871L81.5667 78.9655Z" fill="#202020"/>
<path d="M63.8033 61.3281L63.5288 61.714C63.7217 61.7882 64.1224 61.4468 63.8033 61.3281Z" fill="#202020"/>
<path d="M55.844 54.0093C55.9257 53.764 55.8217 53.437 55.5244 53.4667C55.6731 53.66 55.7102 53.9647 55.844 54.0093Z" fill="#202020"/>
<path d="M33.5101 30.5074L33.7697 30.5519L33.3914 30.3516L33.5101 30.5074Z" fill="#202020"/>
</svg>
