<svg width="85" height="109" viewBox="0 0 85 109" fill="none" xmlns="http://www.w3.org/2000/svg">
<path d="M84.152 0.35619C84.0926 0.222411 83.8399 0.0812032 83.7655 0.267007L84.0703 0.675773L84.152 0.35619Z" fill="#202020"/>
<path d="M82.621 0.861207C82.673 1.18822 82.844 1.65645 83.2899 1.81253C83.0521 1.3443 83.2453 1.41862 82.948 0.883508C83.0224 0.690272 83.2825 0.705133 83.4088 0.838912C83.3494 0.705133 83.6764 0.660541 83.498 0.392983C83.0372 0.363254 82.8291 0.615946 82.8737 1.07674C82.7399 1.06188 82.6805 0.928097 82.621 0.861207Z" fill="#202020"/>
<path d="M70.3654 15.6954L70.4836 15.6289C70.4393 15.6363 70.4024 15.6659 70.3654 15.6954Z" fill="#202020"/>
<path d="M62.9329 25.0157C62.9773 24.9344 62.9625 24.8753 62.9329 24.8457C62.9034 24.927 62.8886 25.0009 62.9329 25.0157Z" fill="#202020"/>
<path d="M61.2683 26.3005C61.3053 26.2783 61.3348 26.2487 61.3644 26.2266C61.3053 26.234 61.2609 26.2561 61.2683 26.3005Z" fill="#202020"/>
<path d="M70.3648 15.6953L70.0531 15.8511C70.1644 15.9699 70.2461 15.7992 70.3648 15.6953Z" fill="#202020"/>
<path d="M81.9595 3.68624C81.9818 3.61935 81.9744 3.54502 81.9595 3.4707C81.9447 3.53016 81.9224 3.58219 81.9001 3.63421C81.9224 3.64908 81.9447 3.66394 81.9595 3.68624Z" fill="#202020"/>
<path d="M73.2267 11.2734L73.286 11.1992C73.2564 11.1398 73.2192 11.0805 73.1747 11.0137L73.2267 11.2734Z" fill="#202020"/>
<path d="M75.6125 8.01953C75.5456 8.07899 75.8578 8.36141 75.9767 8.49519C75.8726 8.34655 75.8429 8.24992 75.8726 8.16074C75.8057 8.11615 75.724 8.07156 75.6125 8.01953Z" fill="#202020"/>
<path d="M80.0644 3.37954L80.0865 3.25391C80.0865 3.29086 80.0718 3.3352 80.0644 3.37954Z" fill="#202020"/>
<path d="M71.4125 13.5183C71.3607 13.4888 71.309 13.4666 71.272 13.4592C71.309 13.4888 71.3607 13.5036 71.4125 13.5183Z" fill="#202020"/>
<path d="M5.63081 105.134C5.60864 105.112 5.59387 105.105 5.5717 105.09C5.59387 105.134 5.60864 105.156 5.63081 105.134Z" fill="#202020"/>
<path d="M1.15697 107.594L1.17926 107.527C1.11981 107.475 1.06036 107.423 1.0009 107.371L1.15697 107.594Z" fill="#202020"/>
<path d="M58.5928 28.94C58.6002 28.94 58.6002 28.9326 58.6076 28.9326C58.6297 28.8291 58.6002 28.8734 58.5928 28.94Z" fill="#202020"/>
<path d="M38.1396 56.3273C38.6747 56.2455 38.1396 57.1225 38.8233 56.907C38.6598 56.8475 38.6227 56.0895 38.1396 56.3273Z" fill="#202020"/>
<path d="M81.8548 3.73828C81.8252 3.78262 81.7957 3.82696 81.7587 3.8713C81.8104 3.81957 81.84 3.77523 81.8548 3.73828Z" fill="#202020"/>
<path d="M38.8232 56.9069L38.8897 56.8848C38.8675 56.8922 38.8453 56.8922 38.8232 56.9069Z" fill="#202020"/>
<path d="M53.5983 35.9199C53.6652 35.9497 53.7321 35.9571 53.799 35.9645C53.7618 35.9422 53.7024 35.9199 53.5983 35.9199Z" fill="#202020"/>
<path d="M57.9379 31.1914L57.7975 31.2801C57.864 31.2579 57.9084 31.2284 57.9379 31.1914Z" fill="#202020"/>
<path d="M52.0589 38.9143C51.985 38.966 51.9185 38.9513 51.889 39.0769C51.9111 39.0843 51.9333 39.0843 51.9481 39.0769C51.9333 39.0178 51.9407 38.9586 52.0589 38.9143Z" fill="#202020"/>
<path d="M49.964 41.664C50.001 41.6714 50.0305 41.664 50.0675 41.664C50.0823 41.6344 50.097 41.5975 50.1192 41.5605L49.964 41.664Z" fill="#202020"/>
<path d="M11.829 96.6547C11.688 96.6472 11.5619 96.6027 11.4357 96.5508C11.7028 96.6918 11.4802 97.1592 11.829 96.6547Z" fill="#202020"/>
<path d="M81.7736 3.54492C81.8479 3.62668 81.8702 3.6787 81.8554 3.73816C81.8777 3.701 81.8925 3.67127 81.9074 3.63411C81.8628 3.58952 81.8182 3.55235 81.7736 3.54492Z" fill="#202020"/>
<path d="M54.5937 41.0254L54.2153 41.4261C54.3414 41.3296 54.4749 41.1812 54.5937 41.0254Z" fill="#202020"/>
<path d="M26.783 76.9082L26.746 77.0412C26.783 77.0043 26.8052 76.9599 26.783 76.9082Z" fill="#202020"/>
<path d="M53.2787 42.7572C53.1003 42.7423 52.974 42.7795 52.8625 42.8315C52.8773 42.8687 52.8773 42.9058 52.9071 42.9504L53.2787 42.7572Z" fill="#202020"/>
<path d="M10.031 100.036C10.358 99.6277 9.74861 99.5162 9.57024 99.2337C9.82293 98.6466 10.0682 99.2486 10.4175 99.2486C10.5364 98.8473 10.3209 98.3047 10.5141 98.0892C10.5959 98.1263 10.6628 98.1041 10.7074 98.223C10.6107 97.6284 11.4283 97.2345 11.2871 96.521C11.3465 96.521 11.3986 96.5359 11.4357 96.5507C11.1682 96.4467 10.9377 96.2832 10.7891 96.1568C10.9229 95.9636 10.7742 95.5994 11.1161 95.7481C11.0195 95.8595 11.131 95.9562 11.1756 96.0751L11.1979 95.7852C11.7404 95.919 11.1384 96.1568 11.4431 96.3947C11.5992 95.9116 11.5992 95.2055 11.9337 95.0048C12.3796 95.2501 11.5472 95.7926 12.2012 95.6737L11.7033 96.0082C12.6026 96.142 11.4506 96.246 12.3722 96.4467C12.9444 95.9413 12.6769 95.6291 13.2417 95.1238C13.1228 94.819 12.8776 94.9157 12.7586 94.6109C12.9965 93.459 14.2748 94.715 14.2079 93.6893C14.0593 93.3252 13.5985 92.8792 14.2079 92.6414L14.5498 93.1394C15.0329 92.5968 14.1485 92.3144 14.914 91.9428C15.0106 92.1881 14.7207 92.5076 14.8396 92.463C15.4937 92.3441 14.795 91.9874 15.018 91.6901L15.4639 91.9354C15.8653 91.2739 16.0882 90.3746 16.5342 89.6462C16.6234 89.7726 16.6605 89.9881 16.9058 89.9212C17.3591 88.9105 18.3476 88.1301 19.2098 87.4835L19.1057 86.9038C19.1651 86.8369 19.3658 86.8889 19.3733 87.0153C19.7523 86.7923 19.1651 86.8295 19.1503 86.5693C19.2618 86.3687 19.5368 86.4801 19.5516 86.6734C19.6928 85.8781 20.1462 84.5701 20.9786 84.2579L20.9935 84.4512C21.4914 84.0944 20.6813 83.3809 21.3353 83.1951V83.3215C22.2569 82.4222 22.7846 81.0621 23.8994 80.6905C23.513 80.1628 24.8805 79.8581 24.2339 79.2635C25.0217 78.9514 25.0143 79.2115 25.869 78.5723C26.0696 78.3791 25.6832 77.9183 25.8095 77.5913L26.1811 77.8588L26.0771 77.2048L26.6642 77.346L26.7608 77.0264C26.6642 77.1082 26.4338 77.1156 26.3446 77.019C26.4784 76.4988 27.3257 76.2535 27.5263 76.3873L27.9277 75.2204C28.0614 75.3542 27.9871 75.5474 27.9871 75.7407C27.9946 74.9603 28.4405 75.9413 28.4479 75.2279C28.3216 75.2279 28.2547 75.0272 28.1878 74.9603C28.5817 74.9008 28.9756 74.388 29.1763 73.9347L29.3695 74.2022C29.9566 73.563 30.358 72.6563 30.9526 71.8834C30.6255 72.0692 30.2391 71.6753 30.3654 71.4152L30.8188 71.6158C30.6924 71.2888 30.4918 71.7422 30.4323 71.2219C30.6999 70.9692 31.0194 71.3631 31.0194 71.6233L31.1532 71.1699C31.287 71.2368 31.2796 71.3631 31.4134 71.4969C31.287 71.1699 32.2606 71.1848 32.0079 70.6571L32.1343 70.724C32.7288 69.951 32.8626 69.4977 33.3234 68.8511C32.9964 68.5835 33.264 68.3977 33.1376 68.0038C33.5984 67.6173 34.2524 67.3052 34.6463 66.7255C34.7801 66.2052 34.4531 66.3984 34.3862 66.0714C34.7132 66.2721 35.1071 65.6924 35.1071 66.1458C35.5679 65.4397 35.7017 65.2465 36.0956 64.206C35.9024 64.206 35.7686 64.2654 35.7091 64.1316C35.776 63.9384 36.1031 63.8789 36.2294 64.0127V64.0796C36.497 62.779 38.7861 62.556 38.7266 61.3148V61.3817L38.9942 60.3487C39.3212 60.0291 39.0536 60.7426 39.4475 60.6162C39.5887 59.3825 40.5401 59.3305 40.7333 58.3791C42.0414 58.5204 42.1305 56.417 43.2528 56.1198L43.0075 56.0009C42.9481 55.6515 43.3048 55.8671 43.4535 55.763C43.2751 55.659 43.1116 55.8225 43.0819 55.6218C44.0406 53.8307 45.8986 52.5598 47.3331 51.0659C47.8459 50.5085 46.5006 49.899 47.5783 49.5274L47.8087 50.0403C48.2621 48.4721 49.7039 47.5802 50.2093 46.0938C50.2465 46.235 50.358 46.3242 50.2688 46.4356C50.7444 46.3985 50.9822 45.5215 50.7593 45.3431C50.9228 45.1796 51.0045 45.462 51.2052 45.4397C51.562 45.3134 51.3241 44.533 51.7032 44.6148C51.7701 44.6296 51.7403 44.756 51.7255 44.8154C51.7106 44.5479 52.3423 44.0797 51.8964 43.9905C52.3869 43.6635 52.3944 43.0317 52.8626 42.8236C52.6694 42.3108 53.6207 42.1993 53.1524 41.7311C53.6653 42.1696 54.1781 41.2777 54.1409 40.8095C54.2301 41.025 54.4977 40.6906 54.6314 40.973C54.8693 40.646 54.9956 40.2744 54.676 40.1258C55.7686 40.0217 55.0625 38.5501 56.1402 38.84C56.5787 37.6657 57.0543 36.6401 57.582 35.6887C58.0948 36.1272 56.9131 36.6772 57.5003 37.0637C57.9016 36.0826 57.7975 35.2651 58.5408 34.5591C58.7711 34.403 58.682 34.8563 58.7191 34.9901C59.1205 34.0091 59.9603 33.4591 60.2204 32.5152C60.265 32.5524 60.265 32.6713 60.2502 32.7753C60.3393 32.6193 60.5772 32.5078 60.3245 32.3368L60.2873 32.5226C59.7596 32.4855 59.9826 31.4004 59.8191 31.2294C60.3319 32.0024 60.54 30.6497 61.1197 31.6977C61.142 31.5713 61.1197 31.3632 60.9413 31.2592C61.0974 31.1551 61.2238 31.1849 61.2981 31.4673C61.5508 30.8578 61.1569 30.843 61.5136 30.3822C61.6325 30.4714 61.6028 30.5977 61.7069 30.7538C61.6548 30.345 61.6028 29.9363 62.0041 29.6241C62.0562 29.6984 62.1825 29.7282 62.0933 29.8396C62.569 29.141 62.3535 28.2343 63.1338 27.6694C63.4757 28.2714 63.4906 27.5505 63.9662 27.8478L64.1372 27.3499L63.8027 27.3424C64.0703 27.0005 63.9885 26.4506 64.3527 26.2648L64.3379 26.6587L64.7466 25.9452L64.3007 26.183C64.3378 25.6628 63.7135 25.7965 64.1892 25.4249C64.1669 25.5513 64.4568 25.083 64.8581 25.0979C64.8507 24.8229 64.8358 24.5331 65.1405 24.3547C65.3337 24.3993 65.5865 24.7783 65.7128 24.8081C65.475 24.3547 66.2256 23.9162 65.9952 23.4034C66.0324 23.5446 66.2628 23.723 66.3297 23.7378L66.1364 23.3662C66.352 23.277 66.4188 23.2919 66.5824 23.4554C67.006 23.0169 65.906 23.1804 66.5824 22.7939C66.5749 22.8608 66.6344 22.8683 66.6047 22.9946C67.1695 22.5115 67.2587 21.7386 67.8087 21.3224C68.3735 21.5082 67.5634 21.8649 68.0762 21.9764C68.5742 21.1514 68.7451 19.992 69.414 19.338L69.2579 19.4346C68.708 18.8549 69.9863 19.1224 69.9714 18.5204C69.9491 18.6468 70.2315 18.9069 70.1795 18.8252C70.6626 18.3941 70.8112 17.6732 71.1977 16.759L71.2869 16.9746C71.6585 16.7887 71.9632 16.2536 72.2828 15.9861C72.1936 15.7705 72.3572 15.607 72.045 15.5401C73.7172 15.2503 72.9889 13.2733 74.4233 12.9761C74.3415 13.0801 74.3713 13.3328 74.4382 13.251L74.8618 12.3889C74.5422 12.2403 74.624 12.3592 74.2895 12.3592C74.2003 12.1436 74.2375 11.8315 74.3787 11.6457C74.3044 12.1214 74.8172 11.9801 75.0848 11.9504C74.9807 11.9133 74.9287 11.7943 74.8321 11.7349C75.6199 11.7126 74.3341 11.2518 75.0699 10.9694L75.1888 11.1031C75.2706 10.8505 75.2185 10.516 75.4266 10.3376C75.8131 10.4863 75.4118 10.6646 75.6645 10.8727C75.88 10.5532 75.5233 9.81738 76.0435 9.78765C76.0361 9.98089 75.8949 10.1667 75.8874 10.3674C76.482 10.3525 76.4151 10.2485 76.6455 10.0701L76.6232 10.0849L77.1806 9.69847L76.9799 9.7505C76.4448 8.74715 77.4184 8.86607 77.2624 7.94448C77.3961 8.82891 77.4928 8.24919 77.8272 8.56135C78.0279 8.50932 78.288 8.39041 78.3475 8.52419C78.2434 8.06339 78.8826 8.29379 78.7191 7.63233C78.8454 7.70665 78.9272 7.37964 79.1724 7.65463C79.3211 7.26815 78.9123 7.57287 78.7934 7.43909C78.7637 6.65872 80.1386 6.66614 80.1238 5.55875C80.3616 4.79324 80.0569 4.38447 80.2798 3.67841C80.6068 3.63382 80.5845 4.15407 80.5845 4.15407C80.9859 3.98313 81.1271 3.73044 81.2163 3.34397C81.2757 3.47775 81.4021 3.48518 81.6028 3.49261C81.744 3.23992 81.298 3.01696 81.6994 2.84602C81.7886 2.99466 81.9446 3.21762 81.9892 3.42572C82.0859 3.07641 82.0784 2.64535 82.1825 2.2886C82.4426 2.37036 82.3609 2.68994 82.4129 2.89061C82.5615 2.50413 82.8514 1.93929 82.6061 1.59741L82.3386 1.7089C82.4129 1.58255 82.6581 1.85754 82.6507 1.98388C82.6953 2.44468 82.2419 2.2886 82.1156 2.21428L82.1899 1.96159C81.3575 1.64944 81.692 2.84602 81.3426 3.21762L80.9785 2.67507L81.0751 3.39599C80.8818 3.38856 80.5623 3.23992 80.6366 2.97979C80.1758 3.08385 80.6143 3.36626 80.1609 3.41086C80.1015 3.40342 80.0866 3.3737 80.0866 3.33654L80.0197 3.73044C79.9603 3.59666 79.6332 3.51491 79.8413 3.39599C79.1724 3.68585 79.5886 4.48852 79.0758 4.39934V4.33245C78.7116 5.15742 79.388 4.67433 79.4103 5.52159L78.2509 5.19458L78.563 5.53646C78.4961 5.59591 78.3623 5.72226 78.236 5.58105C78.2806 6.03441 78.4292 5.65537 78.5407 5.98982C77.9461 6.08644 77.9684 7.06748 77.3293 6.7033C77.5076 7.03775 77.7975 6.53236 77.7009 7.04518C77.0022 6.68101 77.4779 7.55801 76.9576 7.65463C76.7124 7.31275 77.1137 7.1418 76.586 7.24586C76.9799 7.84786 75.9989 7.77354 75.8949 8.12285C76.3185 8.46473 75.6347 8.84377 75.4341 9.40118C75.3152 9.25997 74.5571 10.0701 74.0814 10.3674L74.022 10.3005C74.3936 10.7092 73.9848 11.0808 73.8362 11.4599C73.5835 11.2518 73.524 11.118 73.5389 10.8579L73.3159 11.1552C73.4051 11.3335 73.4051 11.4822 73.3085 11.7052L73.0409 11.3856C72.7585 11.7943 72.8179 12.4707 72.2234 12.8051C72.5058 13.0652 73.3754 13.0429 73.1673 13.7341C72.9889 13.6301 72.6916 13.4368 72.7362 13.2436C72.7213 13.3031 72.7511 13.5112 72.6099 13.5483L72.4984 13.1247C72.2011 13.2659 72.6396 13.422 72.4686 13.5855C72.2382 13.4071 72.2011 13.5929 72.0301 13.4294C72.045 13.3625 72.2457 13.3402 72.2085 13.199C72.0078 13.3774 71.6808 13.5186 71.443 13.4666C71.5916 13.5483 71.7551 13.7044 71.6734 13.8828C71.391 14.2915 71.2869 13.801 70.9971 13.9422C71.0863 14.1578 70.7295 14.2841 71.0714 14.5591C70.9822 14.6706 70.8038 14.5665 70.6775 14.5442C70.6775 14.8638 70.0012 15.5253 70.5437 15.5773L70.6106 15.5401C70.6106 15.555 70.6032 15.5699 70.6032 15.5847C70.4471 16.5138 69.3546 16.8185 68.9978 17.5914L68.8789 17.5022C68.7154 18.0002 68.2918 18.4387 68.3289 18.9143C68.2397 19.0333 67.9053 19.0258 67.8087 18.8698C67.6674 19.2414 67.7715 19.3751 67.2512 19.6576C67.281 19.1968 66.9911 19.6278 67.3405 19.2339C66.9391 19.5461 66.6864 19.4941 66.6864 20.1555C66.4932 19.7839 66.0844 20.163 66.0324 20.4156L66.456 20.3042C66.3371 20.5494 66.1736 20.7129 66.0101 20.8764L65.6905 20.4751C64.598 20.9136 65.4081 22.5412 64.1372 22.5412C64.2486 22.9649 64.6649 22.2514 64.8432 22.6899C64.5088 23.0169 63.6541 22.9723 63.5649 23.0838C62.9629 23.4257 63.7804 23.9905 63.2304 24.4067C63.4237 24.4439 63.8473 24.6668 63.6764 25.1648C63.3419 25.4918 62.7399 25.1722 62.8068 24.8527C62.8589 24.756 62.9406 24.7486 62.9852 24.7858C63.0224 24.6297 63.0818 24.429 62.8217 24.4587L62.9257 24.6148C62.6433 24.6891 62.2717 25.2094 62.1305 24.9121C62.0487 25.2911 62.2717 25.2094 62.5021 25.0533C61.9373 25.3729 61.9298 25.7891 61.4244 26.1681C61.5582 26.1458 61.7812 26.2053 61.7217 26.2796C61.0008 26.8593 61.7515 26.7999 61.4393 27.3276C61.0157 27.439 61.0008 26.837 60.815 27.4613C60.4434 27.6471 60.3914 27.2384 60.3691 27.0377C60.3022 27.6843 59.559 27.7289 59.3137 27.9444L59.3806 27.6248C59.3434 27.8181 59.2543 27.9296 59.1651 28.0485L59.5441 28.1302C59.388 28.2269 59.2989 28.3458 59.1874 28.2566C59.2617 28.539 59.7373 28.5018 59.7745 28.9775C59.4921 29.0518 59.5069 29.6538 59.0833 29.4309C59.6482 28.9478 58.6597 29.2079 58.9718 28.6728C58.9421 28.7991 58.8529 28.9106 58.7043 29.0147C58.6448 29.0072 58.6448 28.9329 58.6523 28.8809C57.9016 29.1782 58.8826 29.4532 58.4367 30.018C58.2806 29.7876 57.9388 29.8471 57.909 29.9734C58.0874 29.743 58.3401 30.1295 58.3401 30.4639C57.9016 30.7092 58.1617 30.9545 57.9908 31.1328L58.2361 30.9693C58.3921 31.1997 58.2212 31.3632 58.0948 31.6679C57.9165 31.5639 58.1617 31.3484 58.0205 31.3855C58.1766 31.9504 57.1509 31.7348 57.0989 32.322C56.8165 32.3963 56.6901 32.0395 56.4746 32.1287C56.4077 32.7753 55.8206 32.3889 55.6942 33.028C56.0807 33.1098 56.0287 33.0355 56.051 33.5706L56.4375 32.6564L56.4746 33.4591C56.653 33.2287 56.6678 32.8348 56.8239 32.7382C56.8759 33.1469 56.8239 33.0726 57.1435 33.1395C56.4821 33.1321 56.9131 33.957 56.3483 34.0983L55.6571 33.5557C54.9287 33.8679 55.2706 34.8043 54.5571 35.384L54.8544 35.2502C55.0625 35.555 54.5571 35.7185 54.4977 36.0381C54.2821 35.8374 54.0889 35.9191 53.8659 35.9043C54.0517 36.0232 53.4497 36.4171 53.8734 36.8333L53.3234 36.9151C52.7585 37.3981 53.4869 38.0819 52.9889 38.5724C52.8626 38.2157 52.5058 38.3346 52.6025 37.8292C52.4612 38.015 52.2903 38.1488 52.4464 38.2751C52.216 38.2751 52.3721 39.0258 52.0228 39.0258C52.0673 39.1819 52.2903 39.39 52.1119 39.5832C52.045 39.5683 52.0005 39.494 52.0005 39.494C52.1119 39.5832 51.9113 39.9399 52.3052 39.9548C51.1458 39.9697 51.1458 41.5899 50.1424 41.6047C49.912 42.0655 49.6222 42.6081 49.3546 42.9871C49.3026 42.9128 49.2357 42.8979 49.3175 42.8459C48.7155 43.1878 49.7485 43.6635 49.0722 44.0574C48.4702 44.0648 49.1019 43.5966 48.8195 43.6709C47.9871 43.1655 48.3959 44.4438 47.6526 44.4884L47.6749 44.3621C47.1918 44.4587 47.4148 45.306 46.9912 45.7445C46.9912 45.7445 46.9391 45.6701 46.8797 45.6553C47.0209 46.287 46.6716 47.0079 46.4263 47.5579C46.2331 47.1863 46.4263 47.2235 46.0547 47.0823C45.9358 47.3201 46.5898 47.3944 46.3594 47.8775C46.0919 47.8849 45.7203 48.0782 45.3635 47.8701L45.646 47.4613C45.0737 47.3424 45.2744 47.9815 45.044 48.1302L44.8805 47.9667C44.4791 48.6133 44.9399 48.9774 44.4196 49.5943L44.6129 49.6315C44.8061 50.3375 44.1298 49.7281 44.2041 50.345L43.6541 50.0997C43.5872 50.4193 43.4832 51.2591 43.2528 51.7422C43.0893 51.2443 43.2825 50.62 43.3048 50.1592C43.1264 50.3896 42.74 50.9693 42.8812 51.2666C42.9035 51.1402 42.8812 50.9321 43.0224 50.8949C43.1711 51.4598 43.067 51.9652 42.7102 52.4185C41.8704 51.6456 41.5657 53.4442 40.6144 53.2435C40.332 54.3137 39.2394 54.7522 38.578 55.7407C39.5367 55.9414 38.3847 56.0306 39.1577 56.5285C39.0388 56.7812 38.957 56.863 38.8975 56.8407L37.9537 57.1826C37.6192 57.1826 37.9537 56.8481 37.7753 56.7515C37.3516 57.19 37.3145 56.7218 36.876 56.8927C37.1881 57.0265 37.1213 57.3461 36.8091 57.5467L37.4408 57.413C37.3145 58.3791 36.3855 57.5319 36.2517 58.5055L36.1848 58.119C36.051 58.5724 35.1963 59.4048 35.5159 60.1926C35.3821 60.1926 35.122 60.1257 35.1889 59.925C34.468 60.6905 34.3937 62.2587 33.539 62.6303L33.4126 62.4297C33.3457 62.6229 33.539 62.9573 33.2119 63.0168C33.1451 62.9499 33.0856 62.8161 33.0187 62.883C33.0187 63.0094 33.0113 63.5296 32.7512 63.6634L32.6843 63.3364C31.8296 63.9756 32.216 64.9566 31.8147 65.7296C31.2944 65.3282 30.6404 65.841 30.3134 66.1012L30.2465 66.0343C29.4587 66.9336 29.4513 67.9741 28.983 69.0071C28.002 69.1261 27.3405 70.6719 26.3595 71.3111C26.5527 71.2516 26.746 71.6381 26.6791 71.8388C26.4189 71.9651 26.6048 72.6861 26.1514 72.2847L26.2183 72.2178C25.6311 72.0172 25.4379 72.5374 25.1703 72.857L25.75 73.3847C24.1819 73.5556 24.3602 75.9042 23.186 75.7555C23.186 76.0826 22.9853 76.3427 22.9853 76.6623L22.6583 76.3947C22.1306 76.9075 21.8705 77.1602 21.4097 77.9406L21.2833 77.6136C20.9563 78 21.863 78.8547 21.5955 79.2412L21.0083 78.9737C20.4806 79.6797 19.4996 80.0588 19.4253 81.0993C19.3584 81.0324 19.232 80.8986 19.2989 80.7722C19.0314 81.0918 17.9909 81.7905 18.7638 82.1992C18.3105 81.8648 18.1692 82.8904 18.08 83.4181L17.7976 83.1059C17.976 83.7451 18.0801 83.8417 17.8571 84.3768C17.7307 84.4512 17.5226 84.2654 17.7159 84.191C17.2774 84.414 17.8199 84.7039 17.3145 85.0011L17.2254 84.6816C16.9206 85.0234 17.0618 85.0829 17.151 85.4694C17.1064 85.7964 16.5416 86.0937 16.2072 85.9227C16.3484 86.1085 16.445 86.495 16.1923 86.6437C16.0585 86.5842 16.0436 86.4579 16.0436 86.391C15.3599 86.8295 15.7389 87.5875 15.0998 87.7585C14.9809 87.6842 14.9065 87.6693 14.8471 87.6767C15.2187 87.2011 15.5383 86.822 15.5308 86.8815C15.2261 86.6511 14.8768 87.0004 14.691 86.3687C14.6836 86.8592 14.7727 87.7734 14.3417 88.0409C14.2971 88.0335 14.2525 88.0335 14.2005 88.0112L14.193 87.9443C14.0964 88.0112 14.0667 88.1078 14.0593 88.2193C13.9181 88.301 13.8214 88.3531 13.7248 88.4645C13.4424 88.3159 13.2492 88.8064 13.0857 88.9922C13.4275 89.2301 13.1823 89.4456 13.6356 89.4158C13.591 89.4307 13.6208 89.349 13.71 89.2077C13.7248 89.1706 13.7471 89.1334 13.7397 89.0963C13.7471 89.1037 13.7545 89.1186 13.762 89.1334C13.8512 88.9996 13.9701 88.8287 14.1039 88.6355C14.1559 88.9179 14.1782 89.1855 13.8289 89.2598C13.9701 89.5199 14.1038 89.8023 14.1559 89.9361C13.487 89.8469 12.8478 90.1739 12.5059 90.0253C12.2384 90.7611 11.562 91.5192 11.9039 92.3664C11.8593 92.5968 11.5769 92.4259 11.4283 92.411C11.4431 92.2624 11.5397 92.1583 11.4877 92.0394C11.3911 92.5002 10.7891 93.0873 11.1681 93.4961C10.6479 93.7711 10.9452 92.9536 10.5736 93.5927L10.4993 93.4144C8.92364 94.0312 10.1945 96.1271 8.32905 96.7217C8.44797 96.6771 8.50744 96.6473 8.59662 96.6845C7.09533 97.8365 6.68655 99.9621 4.96973 100.921C4.53123 101.233 4.77648 101.486 4.79878 101.902L4.37516 101.716L4.46434 102.452C4.30827 103.284 2.7921 102.831 2.78467 104.027L3.09683 104.109C2.84413 104.347 2.57656 105.083 2.33873 104.83C2.36103 104.89 2.51711 105.113 2.31644 105.12L2.12322 104.986L1.92997 105.9C1.39486 106.317 1.25365 105.254 0.636784 105.99C0.495573 106.324 0.569889 107.208 0.770557 107.201C0.867175 107.097 1.11244 107 1.30567 107.134L1.20905 107.469C1.72187 107.937 2.13806 108.561 3.00762 108.219V107.521L3.38667 107.58L3.11912 107.967C3.52789 107.944 3.40898 107.64 3.37181 107.379C3.54275 107.454 3.68396 107.469 3.81031 107.417L3.61707 106.584C3.86976 106.696 3.8995 107.104 4.23395 106.904C4.14476 106.517 3.60221 106.733 3.69883 106.272C4.1076 106.25 4.26366 106.465 4.24136 106.056C4.4123 106.131 4.4569 106.25 4.44946 106.398C4.44946 106.049 4.82108 105.759 4.62041 105.417C5.09607 105.432 5.11093 104.607 5.61632 105.023C5.542 104.86 5.50484 104.325 5.63862 104.102C5.98049 104.949 6.25549 103.366 6.85006 103.975C6.50075 103.277 7.35546 102.794 7.41491 102.065C7.43721 102.125 7.48923 102.251 7.42977 102.273C7.68246 102.036 7.91287 102.08 8.15813 101.991C7.71963 101.605 7.9426 101.099 7.83111 100.646C8.53717 100.653 8.21758 101.263 8.7304 101.486C8.34393 101.218 8.79729 100.616 8.40338 100.49C8.87904 100.445 8.7081 100.371 9.19119 100.527C8.64864 100.044 9.27295 100.215 9.07971 99.7317C9.65199 99.5756 9.69659 100.051 9.83037 99.5087C10.0979 99.5162 10.031 100.036 10.031 100.036ZM16.4227 89.5496C16.4227 89.5571 16.4301 89.5571 16.4227 89.5496C16.3707 89.6463 16.3261 89.7206 16.2963 89.7726C16.3261 89.728 16.3632 89.6685 16.4227 89.5496ZM17.0396 88.7321C16.9504 88.8213 16.8537 88.9402 16.7571 89.074C16.6233 89.0145 16.5267 88.8956 16.5936 88.8139C16.6382 88.9253 16.8463 88.7841 17.0396 88.7321ZM13.4201 88.7098C13.4721 88.5463 13.5687 88.5537 13.6505 88.5835C13.6133 88.6503 13.5687 88.7321 13.5167 88.8361C13.5241 88.851 13.5316 88.8659 13.5464 88.8807C13.4944 88.8213 13.4424 88.7618 13.4201 88.7098Z" fill="#202020"/>
<path d="M13.6802 89.2673C13.6728 89.2894 13.6802 89.3116 13.6655 89.3412C13.7172 89.3338 13.7615 89.3338 13.7985 89.319C13.7763 89.2746 13.7541 89.2377 13.732 89.1934C13.7098 89.2229 13.695 89.2451 13.6802 89.2673Z" fill="#202020"/>
<path d="M70.5065 15.6211L70.4843 15.6359C70.5065 15.6285 70.5286 15.6285 70.5582 15.6359C70.536 15.6285 70.5286 15.6211 70.5065 15.6211Z" fill="#202020"/>
<path d="M26.255 77.94L26.1737 77.8809L26.1884 78.0065L26.255 77.94Z" fill="#202020"/>
<path d="M75.0699 11.9951C75.1069 12.0099 75.1512 12.0173 75.2029 12.0025C75.1807 11.9877 75.129 11.9877 75.0699 11.9951Z" fill="#202020"/>
<path d="M76.6232 10.1074L76.9497 9.92188C76.7939 9.98866 76.6974 10.0554 76.6232 10.1074Z" fill="#202020"/>
<path d="M77.9232 8.73807C77.8788 8.67156 77.8419 8.63461 77.8049 8.59766C77.8049 8.59766 77.8049 8.59766 77.7975 8.59766L77.9232 8.73807Z" fill="#202020"/>
<path d="M60.2424 32.7832C60.2276 32.8054 60.2202 32.8275 60.2128 32.8497C60.1759 33.0345 60.2202 32.9236 60.2424 32.7832Z" fill="#202020"/>
<path d="M64.8431 25.127C64.8431 25.2457 64.8506 25.3644 64.8283 25.4757C64.947 25.3644 65.0286 25.2754 64.8431 25.127Z" fill="#202020"/>
<path d="M54.6386 40.9802C54.6238 40.995 54.609 41.0098 54.5943 41.0246L54.6386 40.9802Z" fill="#202020"/>
<path d="M64.5756 25.7952C64.7388 25.721 64.8056 25.6023 64.8279 25.4688C64.7314 25.5578 64.5979 25.6543 64.5756 25.7952Z" fill="#202020"/>
<path d="M83.0075 2.37647L83.074 2.31735C83.0518 2.30257 83.0371 2.28779 83.0297 2.26562L83.0075 2.37647Z" fill="#202020"/>
<path d="M83.0298 2.26515L83.0519 2.1543C83.0224 2.19125 83.0002 2.2282 83.0298 2.26515Z" fill="#202020"/>
<path d="M83.0892 1.92383L83.0446 2.15423C83.0892 2.1022 83.1561 2.03531 83.0892 1.92383Z" fill="#202020"/>
<path d="M81.3427 4.23633L81.4461 4.34718C81.4314 4.32501 81.4018 4.28806 81.3427 4.23633Z" fill="#202020"/>
<path d="M80.9265 4.86829C81.0603 4.74938 81.4542 4.70478 81.536 4.44465L81.4542 4.35547C81.5583 4.58587 80.8225 4.57844 80.9265 4.86829Z" fill="#202020"/>
<path d="M77.5225 6.24317L78.0056 5.8121C77.8124 5.80467 77.5522 5.7898 77.6935 5.53711C76.8239 5.87899 78.0799 5.61887 77.5225 6.24317Z" fill="#202020"/>
<path d="M76.147 7.66089C76.2954 7.34182 75.9615 7.51991 75.8947 7.45312C75.8873 7.71283 75.8873 7.77219 76.147 7.66089Z" fill="#202020"/>
<path d="M67.5629 18.9433L67.2809 18.6836C67.1622 18.9285 67.3922 18.7726 67.5629 18.9433Z" fill="#202020"/>
<path d="M67.4816 22.2874L67.823 22.228L67.6226 21.9238L67.4816 22.2874Z" fill="#202020"/>
<path d="M64.3602 21.9232L64.3825 21.7969L64.2338 22.2279L64.3602 21.9232Z" fill="#202020"/>
<path d="M50.0458 40.9589L50.4695 41.1818C50.5066 40.9812 50.1127 40.6393 50.0458 40.9589Z" fill="#202020"/>
<path d="M44.1967 49.4228C43.944 49.3707 43.6467 49.512 43.721 49.7869C43.8919 49.6234 44.1744 49.5565 44.1967 49.4228Z" fill="#202020"/>
<path d="M24.9176 73.496V73.2363L24.7914 73.6296L24.9176 73.496Z" fill="#202020"/>
</svg>
